<svg version="1.1" width="701" height="701" xmlns="http://www.w3.org/2000/svg">
<line x1="49.5" y1="49.50001" x2="163.5" y2="49.500015" stroke="rgb(0,0,0)" stroke-width="1"/>
<line x1="163.5" y1="49.500015" x2="163.49998" y2="163.50002" stroke="rgb(0,0,0)" stroke-width="1"/>
<line x1="163.49998" y1="163.50002" x2="49.499985" y2="163.5" stroke="rgb(0,0,0)" stroke-width="1"/>
<line x1="49.499985" y1="163.5" x2="49.500004" y2="49.5" stroke="rgb(0,0,0)" stroke-width="1"/>
<line x1="212.5" y1="49.500034" x2="326.5" y2="49.50006" stroke="rgb(0,0,0)" stroke-width="1"/>
<line x1="326.5" y1="49.50006" x2="326.49997" y2="163.50006" stroke="rgb(0,0,0)" stroke-width="1"/>
<line x1="326.49997" y1="163.50006" x2="212.49997" y2="163.50003" stroke="rgb(0,0,0)" stroke-width="1"/>
<line x1="212.49997" y1="163.50003" x2="212.50002" y2="49.50003" stroke="rgb(0,0,0)" stroke-width="1"/>
<line x1="375.5" y1="49.500095" x2="489.5" y2="49.50014" stroke="rgb(0,0,0)" stroke-width="1"/>
<line x1="489.5" y1="49.50014" x2="489.49994" y2="163.50014" stroke="rgb(0,0,0)" stroke-width="1"/>
<line x1="489.49994" y1="163.50014" x2="375.49994" y2="163.50008" stroke="rgb(0,0,0)" stroke-width="1"/>
<line x1="375.49994" y1="163.50008" x2="375.5" y2="49.500076" stroke="rgb(0,0,0)" stroke-width="1"/>
<line x1="538.5" y1="49.500168" x2="652.5" y2="49.500233" stroke="rgb(0,0,0)" stroke-width="1"/>
<line x1="652.5" y1="49.500233" x2="652.49994" y2="163.50023" stroke="rgb(0,0,0)" stroke-width="1"/>
<line x1="652.49994" y1="163.50023" x2="538.49994" y2="163.50015" stroke="rgb(0,0,0)" stroke-width="1"/>
<line x1="538.49994" y1="163.50015" x2="538.5" y2="49.500153" stroke="rgb(0,0,0)" stroke-width="1"/>
<line x1="49.49987" y1="212.49979" x2="163.49986" y2="212.49988" stroke="rgb(0,0,0)" stroke-width="1"/>
<line x1="163.49986" y1="212.49988" x2="163.49977" y2="326.49988" stroke="rgb(0,0,0)" stroke-width="1"/>
<line x1="163.49977" y1="326.49988" x2="49.49977" y2="326.4998" stroke="rgb(0,0,0)" stroke-width="1"/>
<line x1="49.49977" y1="326.4998" x2="49.49987" y2="212.49979" stroke="rgb(0,0,0)" stroke-width="1"/>
<line x1="212.49986" y1="212.49994" x2="326.49985" y2="212.50005" stroke="rgb(0,0,0)" stroke-width="1"/>
<line x1="326.49985" y1="212.50005" x2="326.49973" y2="326.50003" stroke="rgb(0,0,0)" stroke-width="1"/>
<line x1="326.49973" y1="326.50003" x2="212.49973" y2="326.4999" stroke="rgb(0,0,0)" stroke-width="1"/>
<line x1="212.49973" y1="326.4999" x2="212.49985" y2="212.49991" stroke="rgb(0,0,0)" stroke-width="1"/>
<line x1="375.49985" y1="212.50009" x2="489.49985" y2="212.50021" stroke="rgb(0,0,0)" stroke-width="1"/>
<line x1="489.49985" y1="212.50021" x2="489.49973" y2="326.5002" stroke="rgb(0,0,0)" stroke-width="1"/>
<line x1="489.49973" y1="326.5002" x2="375.49973" y2="326.5001" stroke="rgb(0,0,0)" stroke-width="1"/>
<line x1="375.49973" y1="326.5001" x2="375.49988" y2="212.50009" stroke="rgb(0,0,0)" stroke-width="1"/>
<line x1="538.4999" y1="212.5003" x2="652.4999" y2="212.50044" stroke="rgb(0,0,0)" stroke-width="1"/>
<line x1="652.4999" y1="212.50044" x2="652.49976" y2="326.50043" stroke="rgb(0,0,0)" stroke-width="1"/>
<line x1="652.49976" y1="326.50043" x2="538.49976" y2="326.50027" stroke="rgb(0,0,0)" stroke-width="1"/>
<line x1="538.49976" y1="326.50027" x2="538.49994" y2="212.50027" stroke="rgb(0,0,0)" stroke-width="1"/>
<line x1="49.499695" y1="375.49954" x2="163.4997" y2="375.4997" stroke="rgb(0,0,0)" stroke-width="1"/>
<line x1="163.4997" y1="375.4997" x2="163.49953" y2="489.4997" stroke="rgb(0,0,0)" stroke-width="1"/>
<line x1="163.49953" y1="489.4997" x2="49.499527" y2="489.4995" stroke="rgb(0,0,0)" stroke-width="1"/>
<line x1="49.499527" y1="489.4995" x2="49.499706" y2="375.4995" stroke="rgb(0,0,0)" stroke-width="1"/>
<line x1="212.49971" y1="375.4998" x2="326.4997" y2="375.49997" stroke="rgb(0,0,0)" stroke-width="1"/>
<line x1="326.4997" y1="375.49997" x2="326.4995" y2="489.49997" stroke="rgb(0,0,0)" stroke-width="1"/>
<line x1="326.4995" y1="489.49997" x2="212.49951" y2="489.4998" stroke="rgb(0,0,0)" stroke-width="1"/>
<line x1="212.49951" y1="489.4998" x2="212.49971" y2="375.4998" stroke="rgb(0,0,0)" stroke-width="1"/>
<line x1="375.4997" y1="375.5001" x2="489.4997" y2="375.5003" stroke="rgb(0,0,0)" stroke-width="1"/>
<line x1="489.4997" y1="375.5003" x2="489.49948" y2="489.5003" stroke="rgb(0,0,0)" stroke-width="1"/>
<line x1="489.49948" y1="489.5003" x2="375.49948" y2="489.5001" stroke="rgb(0,0,0)" stroke-width="1"/>
<line x1="375.49948" y1="489.5001" x2="375.4997" y2="375.5001" stroke="rgb(0,0,0)" stroke-width="1"/>
<line x1="538.4997" y1="375.50043" x2="652.4997" y2="375.50064" stroke="rgb(0,0,0)" stroke-width="1"/>
<line x1="652.4997" y1="375.50064" x2="652.49945" y2="489.50064" stroke="rgb(0,0,0)" stroke-width="1"/>
<line x1="652.49945" y1="489.50064" x2="538.49945" y2="489.5004" stroke="rgb(0,0,0)" stroke-width="1"/>
<line x1="538.49945" y1="489.5004" x2="538.4997" y2="375.5004" stroke="rgb(0,0,0)" stroke-width="1"/>
<line x1="49.49934" y1="538.4993" x2="163.49934" y2="538.4996" stroke="rgb(0,0,0)" stroke-width="1"/>
<line x1="163.49934" y1="538.4996" x2="163.4991" y2="652.4996" stroke="rgb(0,0,0)" stroke-width="1"/>
<line x1="163.4991" y1="652.4996" x2="49.4991" y2="652.4993" stroke="rgb(0,0,0)" stroke-width="1"/>
<line x1="49.4991" y1="652.4993" x2="49.49936" y2="538.4993" stroke="rgb(0,0,0)" stroke-width="1"/>
<line x1="212.49936" y1="538.4997" x2="326.49936" y2="538.49994" stroke="rgb(0,0,0)" stroke-width="1"/>
<line x1="326.49936" y1="538.49994" x2="326.49908" y2="652.49994" stroke="rgb(0,0,0)" stroke-width="1"/>
<line x1="326.49908" y1="652.49994" x2="212.49908" y2="652.4997" stroke="rgb(0,0,0)" stroke-width="1"/>
<line x1="212.49908" y1="652.4997" x2="212.49936" y2="538.4997" stroke="rgb(0,0,0)" stroke-width="1"/>
<line x1="375.49936" y1="538.5001" x2="489.49936" y2="538.5004" stroke="rgb(0,0,0)" stroke-width="1"/>
<line x1="489.49936" y1="538.5004" x2="489.49908" y2="652.5004" stroke="rgb(0,0,0)" stroke-width="1"/>
<line x1="489.49908" y1="652.5004" x2="375.49908" y2="652.5001" stroke="rgb(0,0,0)" stroke-width="1"/>
<line x1="375.49908" y1="652.5001" x2="375.4994" y2="538.5001" stroke="rgb(0,0,0)" stroke-width="1"/>
<line x1="538.4994" y1="538.50055" x2="652.4994" y2="538.50085" stroke="rgb(0,0,0)" stroke-width="1"/>
<line x1="652.4994" y1="538.50085" x2="652.4991" y2="652.50085" stroke="rgb(0,0,0)" stroke-width="1"/>
<line x1="652.4991" y1="652.50085" x2="538.4991" y2="652.50055" stroke="rgb(0,0,0)" stroke-width="1"/>
<line x1="538.4991" y1="652.50055" x2="538.4994" y2="538.50055" stroke="rgb(0,0,0)" stroke-width="1"/>
</svg>
