<svg version="1.1" width="701" height="701" xmlns="http://www.w3.org/2000/svg">
<line x1="350.5" y1="600.5" x2="350.5" y2="460.5" stroke="rgb(0,0,0)" stroke-width="1"/>
<line x1="350.5" y1="460.5" x2="309.45758" y2="347.73688" stroke="rgb(0,0,0)" stroke-width="1"/>
<line x1="350.5" y1="460.5" x2="391.54242" y2="347.73688" stroke="rgb(0,0,0)" stroke-width="1"/>
<line x1="309.45758" y1="347.73688" x2="249.27608" y2="267.87332" stroke="rgb(0,0,0)" stroke-width="1"/>
<line x1="309.45758" y1="347.73688" x2="304.224" y2="247.87392" stroke="rgb(0,0,0)" stroke-width="1"/>
<line x1="391.54242" y1="347.73688" x2="396.776" y2="247.87392" stroke="rgb(0,0,0)" stroke-width="1"/>
<line x1="391.54242" y1="347.73688" x2="451.72394" y2="267.87332" stroke="rgb(0,0,0)" stroke-width="1"/>
<line x1="249.27608" y1="267.87332" x2="187.1044" y2="217.5277" stroke="rgb(0,0,0)" stroke-width="1"/>
<line x1="249.27608" y1="267.87332" x2="218.0176" y2="194.23294" stroke="rgb(0,0,0)" stroke-width="1"/>
<line x1="304.224" y1="247.87392" x2="280.83426" y2="171.36954" stroke="rgb(0,0,0)" stroke-width="1"/>
<line x1="304.224" y1="247.87392" x2="319.4887" y2="169.34373" stroke="rgb(0,0,0)" stroke-width="1"/>
<line x1="396.776" y1="247.87392" x2="381.5113" y2="169.34373" stroke="rgb(0,0,0)" stroke-width="1"/>
<line x1="396.776" y1="247.87392" x2="420.16574" y2="171.36954" stroke="rgb(0,0,0)" stroke-width="1"/>
<line x1="451.72394" y1="267.87332" x2="482.98242" y2="194.23294" stroke="rgb(0,0,0)" stroke-width="1"/>
<line x1="451.72394" y1="267.87332" x2="513.8956" y2="217.5277" stroke="rgb(0,0,0)" stroke-width="1"/>
<line x1="187.1044" y1="217.5277" x2="134.12755" y2="189.3594" stroke="rgb(0,0,0)" stroke-width="1"/>
<line x1="187.1044" y1="217.5277" x2="148.53714" y2="171.56503" stroke="rgb(0,0,0)" stroke-width="1"/>
<line x1="218.0176" y1="194.23294" x2="184.46602" y2="144.49069" stroke="rgb(0,0,0)" stroke-width="1"/>
<line x1="218.0176" y1="194.23294" x2="205.5429" y2="135.54408" stroke="rgb(0,0,0)" stroke-width="1"/>
<line x1="280.83426" y1="171.36954" x2="252.66597" y2="118.392685" stroke="rgb(0,0,0)" stroke-width="1"/>
<line x1="280.83426" y1="171.36954" x2="274.56256" y2="111.69823" stroke="rgb(0,0,0)" stroke-width="1"/>
<line x1="319.4887" y1="169.34373" x2="319.4887" y2="109.343735" stroke="rgb(0,0,0)" stroke-width="1"/>
<line x1="319.4887" y1="169.34373" x2="341.96512" y2="113.71271" stroke="rgb(0,0,0)" stroke-width="1"/>
<line x1="381.5113" y1="169.34373" x2="359.03488" y2="113.71271" stroke="rgb(0,0,0)" stroke-width="1"/>
<line x1="381.5113" y1="169.34373" x2="381.5113" y2="109.343735" stroke="rgb(0,0,0)" stroke-width="1"/>
<line x1="420.16574" y1="171.36954" x2="426.43744" y2="111.69823" stroke="rgb(0,0,0)" stroke-width="1"/>
<line x1="420.16574" y1="171.36954" x2="448.33405" y2="118.392685" stroke="rgb(0,0,0)" stroke-width="1"/>
<line x1="482.98242" y1="194.23294" x2="495.45712" y2="135.54408" stroke="rgb(0,0,0)" stroke-width="1"/>
<line x1="482.98242" y1="194.23294" x2="516.534" y2="144.49069" stroke="rgb(0,0,0)" stroke-width="1"/>
<line x1="513.8956" y1="217.5277" x2="552.4629" y2="171.56503" stroke="rgb(0,0,0)" stroke-width="1"/>
<line x1="513.8956" y1="217.5277" x2="566.8725" y2="189.3594" stroke="rgb(0,0,0)" stroke-width="1"/>
</svg>
