<?xml version="1.0" encoding="UTF-8" standalone="no"?>
<svg
   xmlns:dc="http://purl.org/dc/elements/1.1/"
   xmlns:cc="http://creativecommons.org/ns#"
   xmlns:rdf="http://www.w3.org/1999/02/22-rdf-syntax-ns#"
   xmlns:svg="http://www.w3.org/2000/svg"
   xmlns="http://www.w3.org/2000/svg"
   xmlns:sodipodi="http://sodipodi.sourceforge.net/DTD/sodipodi-0.dtd"
   xmlns:inkscape="http://www.inkscape.org/namespaces/inkscape"
   version="1.1"
   width="476"
   height="191"
   id="svg2"
   inkscape:version="0.48.3.1 r9886"
   sodipodi:docname="hilbert-gen.svg">
  <metadata
     id="metadata680">
    <rdf:RDF>
      <cc:Work
         rdf:about="">
        <dc:format>image/svg+xml</dc:format>
        <dc:type
           rdf:resource="http://purl.org/dc/dcmitype/StillImage" />
      </cc:Work>
    </rdf:RDF>
  </metadata>
  <defs
     id="defs678" />
  <sodipodi:namedview
     pagecolor="#ffffff"
     bordercolor="#666666"
     borderopacity="1"
     objecttolerance="10"
     gridtolerance="10"
     guidetolerance="10"
     inkscape:pageopacity="0"
     inkscape:pageshadow="2"
     inkscape:window-width="640"
     inkscape:window-height="480"
     id="namedview676"
     showgrid="false"
     fit-margin-top="20"
     fit-margin-left="20"
     fit-margin-right="20"
     fit-margin-bottom="20"
     inkscape:zoom="0.33666191"
     inkscape:cx="320.5"
     inkscape:cy="-134.5"
     inkscape:window-x="0"
     inkscape:window-y="19"
     inkscape:window-maximized="0"
     inkscape:current-layer="svg2" />
  <line
     x1="20.5"
     y1="110.5"
     x2="20.5"
     y2="80.5"
     id="line4"
     style="stroke:#000000;stroke-width:1" />
  <line
     x1="80.5"
     y1="125.5"
     x2="100.5"
     y2="125.5"
     id="line6"
     style="stroke:#000000;stroke-width:1" />
  <line
     x1="170.5"
     y1="147.5"
     x2="170.5"
     y2="132.5"
     id="line8"
     style="stroke:#000000;stroke-width:1" />
  <line
     x1="305.5"
     y1="170.5"
     x2="315.5"
     y2="170.5"
     id="line10"
     style="stroke:#000000;stroke-width:1" />
  <line
     x1="20.5"
     y1="80.5"
     x2="50.5"
     y2="80.5"
     id="line12"
     style="stroke:#000000;stroke-width:1" />
  <line
     x1="100.5"
     y1="125.5"
     x2="100.5"
     y2="105.5"
     id="line14"
     style="stroke:#000000;stroke-width:1" />
  <line
     x1="170.5"
     y1="132.5"
     x2="185.5"
     y2="132.5"
     id="line16"
     style="stroke:#000000;stroke-width:1" />
  <line
     x1="315.5"
     y1="170.5"
     x2="315.5"
     y2="160.5"
     id="line18"
     style="stroke:#000000;stroke-width:1" />
  <line
     x1="50.5"
     y1="80.5"
     x2="50.5"
     y2="110.5"
     id="line20"
     style="stroke:#000000;stroke-width:1" />
  <line
     x1="100.5"
     y1="105.5"
     x2="80.5"
     y2="105.5"
     id="line22"
     style="stroke:#000000;stroke-width:1" />
  <line
     x1="185.5"
     y1="132.5"
     x2="185.5"
     y2="147.5"
     id="line24"
     style="stroke:#000000;stroke-width:1" />
  <line
     x1="315.5"
     y1="160.5"
     x2="305.5"
     y2="160.5"
     id="line26"
     style="stroke:#000000;stroke-width:1" />
  <line
     x1="80.5"
     y1="105.5"
     x2="80.5"
     y2="85.5"
     id="line28"
     style="stroke:#000000;stroke-width:1" />
  <line
     x1="185.5"
     y1="147.5"
     x2="200.5"
     y2="147.5"
     id="line30"
     style="stroke:#000000;stroke-width:1" />
  <line
     x1="305.5"
     y1="160.5"
     x2="305.5"
     y2="150.5"
     id="line32"
     style="stroke:#000000;stroke-width:1" />
  <line
     x1="80.5"
     y1="85.5"
     x2="80.5"
     y2="65.5"
     id="line34"
     style="stroke:#000000;stroke-width:1" />
  <line
     x1="200.5"
     y1="147.5"
     x2="215.5"
     y2="147.5"
     id="line36"
     style="stroke:#000000;stroke-width:1" />
  <line
     x1="305.5"
     y1="150.5"
     x2="305.5"
     y2="140.5"
     id="line38"
     style="stroke:#000000;stroke-width:1" />
  <line
     x1="80.5"
     y1="65.5"
     x2="100.5"
     y2="65.5"
     id="line40"
     style="stroke:#000000;stroke-width:1" />
  <line
     x1="215.5"
     y1="147.5"
     x2="215.5"
     y2="132.5"
     id="line42"
     style="stroke:#000000;stroke-width:1" />
  <line
     x1="305.5"
     y1="140.5"
     x2="315.5"
     y2="140.5"
     id="line44"
     style="stroke:#000000;stroke-width:1" />
  <line
     x1="100.5"
     y1="65.5"
     x2="100.5"
     y2="85.5"
     id="line46"
     style="stroke:#000000;stroke-width:1" />
  <line
     x1="215.5"
     y1="132.5"
     x2="200.5"
     y2="132.5"
     id="line48"
     style="stroke:#000000;stroke-width:1" />
  <line
     x1="315.5"
     y1="140.5"
     x2="315.5"
     y2="150.5"
     id="line50"
     style="stroke:#000000;stroke-width:1" />
  <line
     x1="100.5"
     y1="85.5"
     x2="120.5"
     y2="85.5"
     id="line52"
     style="stroke:#000000;stroke-width:1" />
  <line
     x1="200.5"
     y1="132.5"
     x2="200.5"
     y2="117.5"
     id="line54"
     style="stroke:#000000;stroke-width:1" />
  <line
     x1="315.5"
     y1="150.5"
     x2="325.5"
     y2="150.5"
     id="line56"
     style="stroke:#000000;stroke-width:1" />
  <line
     x1="120.5"
     y1="85.5"
     x2="120.5"
     y2="65.5"
     id="line58"
     style="stroke:#000000;stroke-width:1" />
  <line
     x1="200.5"
     y1="117.5"
     x2="215.5"
     y2="117.5"
     id="line60"
     style="stroke:#000000;stroke-width:1" />
  <line
     x1="325.5"
     y1="150.5"
     x2="325.5"
     y2="140.5"
     id="line62"
     style="stroke:#000000;stroke-width:1" />
  <line
     x1="120.5"
     y1="65.5"
     x2="140.5"
     y2="65.5"
     id="line64"
     style="stroke:#000000;stroke-width:1" />
  <line
     x1="215.5"
     y1="117.5"
     x2="215.5"
     y2="102.5"
     id="line66"
     style="stroke:#000000;stroke-width:1" />
  <line
     x1="325.5"
     y1="140.5"
     x2="335.5"
     y2="140.5"
     id="line68"
     style="stroke:#000000;stroke-width:1" />
  <line
     x1="140.5"
     y1="65.5"
     x2="140.5"
     y2="85.5"
     id="line70"
     style="stroke:#000000;stroke-width:1" />
  <line
     x1="215.5"
     y1="102.5"
     x2="200.5"
     y2="102.5"
     id="line72"
     style="stroke:#000000;stroke-width:1" />
  <line
     x1="335.5"
     y1="140.5"
     x2="335.5"
     y2="150.5"
     id="line74"
     style="stroke:#000000;stroke-width:1" />
  <line
     x1="140.5"
     y1="85.5"
     x2="140.5"
     y2="105.5"
     id="line76"
     style="stroke:#000000;stroke-width:1" />
  <line
     x1="200.5"
     y1="102.5"
     x2="185.5"
     y2="102.5"
     id="line78"
     style="stroke:#000000;stroke-width:1" />
  <line
     x1="335.5"
     y1="150.5"
     x2="335.5"
     y2="160.5"
     id="line80"
     style="stroke:#000000;stroke-width:1" />
  <line
     x1="140.5"
     y1="105.5"
     x2="120.5"
     y2="105.5"
     id="line82"
     style="stroke:#000000;stroke-width:1" />
  <line
     x1="185.5"
     y1="102.5"
     x2="185.5"
     y2="117.5"
     id="line84"
     style="stroke:#000000;stroke-width:1" />
  <line
     x1="335.5"
     y1="160.5"
     x2="325.5"
     y2="160.5"
     id="line86"
     style="stroke:#000000;stroke-width:1" />
  <line
     x1="120.5"
     y1="105.5"
     x2="120.5"
     y2="125.5"
     id="line88"
     style="stroke:#000000;stroke-width:1" />
  <line
     x1="185.5"
     y1="117.5"
     x2="170.5"
     y2="117.5"
     id="line90"
     style="stroke:#000000;stroke-width:1" />
  <line
     x1="325.5"
     y1="160.5"
     x2="325.5"
     y2="170.5"
     id="line92"
     style="stroke:#000000;stroke-width:1" />
  <line
     x1="120.5"
     y1="125.5"
     x2="140.5"
     y2="125.5"
     id="line94"
     style="stroke:#000000;stroke-width:1" />
  <line
     x1="170.5"
     y1="117.5"
     x2="170.5"
     y2="102.5"
     id="line96"
     style="stroke:#000000;stroke-width:1" />
  <line
     x1="325.5"
     y1="170.5"
     x2="335.5"
     y2="170.5"
     id="line98"
     style="stroke:#000000;stroke-width:1" />
  <line
     x1="170.5"
     y1="102.5"
     x2="170.5"
     y2="87.5"
     id="line100"
     style="stroke:#000000;stroke-width:1" />
  <line
     x1="335.5"
     y1="170.5"
     x2="345.5"
     y2="170.5"
     id="line102"
     style="stroke:#000000;stroke-width:1" />
  <line
     x1="170.5"
     y1="87.5"
     x2="185.5"
     y2="87.5"
     id="line104"
     style="stroke:#000000;stroke-width:1" />
  <line
     x1="345.5"
     y1="170.5"
     x2="345.5"
     y2="160.5"
     id="line106"
     style="stroke:#000000;stroke-width:1" />
  <line
     x1="185.5"
     y1="87.5"
     x2="185.5"
     y2="72.5"
     id="line108"
     style="stroke:#000000;stroke-width:1" />
  <line
     x1="345.5"
     y1="160.5"
     x2="355.5"
     y2="160.5"
     id="line110"
     style="stroke:#000000;stroke-width:1" />
  <line
     x1="185.5"
     y1="72.5"
     x2="170.5"
     y2="72.5"
     id="line112"
     style="stroke:#000000;stroke-width:1" />
  <line
     x1="355.5"
     y1="160.5"
     x2="355.5"
     y2="170.5"
     id="line114"
     style="stroke:#000000;stroke-width:1" />
  <line
     x1="170.5"
     y1="72.5"
     x2="170.5"
     y2="57.5"
     id="line116"
     style="stroke:#000000;stroke-width:1" />
  <line
     x1="355.5"
     y1="170.5"
     x2="365.5"
     y2="170.5"
     id="line118"
     style="stroke:#000000;stroke-width:1" />
  <line
     x1="170.5"
     y1="57.5"
     x2="170.5"
     y2="42.5"
     id="line120"
     style="stroke:#000000;stroke-width:1" />
  <line
     x1="365.5"
     y1="170.5"
     x2="375.5"
     y2="170.5"
     id="line122"
     style="stroke:#000000;stroke-width:1" />
  <line
     x1="170.5"
     y1="42.5"
     x2="185.5"
     y2="42.5"
     id="line124"
     style="stroke:#000000;stroke-width:1" />
  <line
     x1="375.5"
     y1="170.5"
     x2="375.5"
     y2="160.5"
     id="line126"
     style="stroke:#000000;stroke-width:1" />
  <line
     x1="185.5"
     y1="42.5"
     x2="185.5"
     y2="57.5"
     id="line128"
     style="stroke:#000000;stroke-width:1" />
  <line
     x1="375.5"
     y1="160.5"
     x2="365.5"
     y2="160.5"
     id="line130"
     style="stroke:#000000;stroke-width:1" />
  <line
     x1="185.5"
     y1="57.5"
     x2="200.5"
     y2="57.5"
     id="line132"
     style="stroke:#000000;stroke-width:1" />
  <line
     x1="365.5"
     y1="160.5"
     x2="365.5"
     y2="150.5"
     id="line134"
     style="stroke:#000000;stroke-width:1" />
  <line
     x1="200.5"
     y1="57.5"
     x2="200.5"
     y2="42.5"
     id="line136"
     style="stroke:#000000;stroke-width:1" />
  <line
     x1="365.5"
     y1="150.5"
     x2="375.5"
     y2="150.5"
     id="line138"
     style="stroke:#000000;stroke-width:1" />
  <line
     x1="200.5"
     y1="42.5"
     x2="215.5"
     y2="42.5"
     id="line140"
     style="stroke:#000000;stroke-width:1" />
  <line
     x1="375.5"
     y1="150.5"
     x2="375.5"
     y2="140.5"
     id="line142"
     style="stroke:#000000;stroke-width:1" />
  <line
     x1="215.5"
     y1="42.5"
     x2="215.5"
     y2="57.5"
     id="line144"
     style="stroke:#000000;stroke-width:1" />
  <line
     x1="375.5"
     y1="140.5"
     x2="365.5"
     y2="140.5"
     id="line146"
     style="stroke:#000000;stroke-width:1" />
  <line
     x1="215.5"
     y1="57.5"
     x2="215.5"
     y2="72.5"
     id="line148"
     style="stroke:#000000;stroke-width:1" />
  <line
     x1="365.5"
     y1="140.5"
     x2="355.5"
     y2="140.5"
     id="line150"
     style="stroke:#000000;stroke-width:1" />
  <line
     x1="215.5"
     y1="72.5"
     x2="200.5"
     y2="72.5"
     id="line152"
     style="stroke:#000000;stroke-width:1" />
  <line
     x1="355.5"
     y1="140.5"
     x2="355.5"
     y2="150.5"
     id="line154"
     style="stroke:#000000;stroke-width:1" />
  <line
     x1="200.5"
     y1="72.5"
     x2="200.5"
     y2="87.5"
     id="line156"
     style="stroke:#000000;stroke-width:1" />
  <line
     x1="355.5"
     y1="150.5"
     x2="345.5"
     y2="150.5"
     id="line158"
     style="stroke:#000000;stroke-width:1" />
  <line
     x1="200.5"
     y1="87.5"
     x2="215.5"
     y2="87.5"
     id="line160"
     style="stroke:#000000;stroke-width:1" />
  <line
     x1="345.5"
     y1="150.5"
     x2="345.5"
     y2="140.5"
     id="line162"
     style="stroke:#000000;stroke-width:1" />
  <line
     x1="215.5"
     y1="87.5"
     x2="230.5"
     y2="87.5"
     id="line164"
     style="stroke:#000000;stroke-width:1" />
  <line
     x1="345.5"
     y1="140.5"
     x2="345.5"
     y2="130.5"
     id="line166"
     style="stroke:#000000;stroke-width:1" />
  <line
     x1="230.5"
     y1="87.5"
     x2="245.5"
     y2="87.5"
     id="line168"
     style="stroke:#000000;stroke-width:1" />
  <line
     x1="345.5"
     y1="130.5"
     x2="345.5"
     y2="120.5"
     id="line170"
     style="stroke:#000000;stroke-width:1" />
  <line
     x1="245.5"
     y1="87.5"
     x2="245.5"
     y2="72.5"
     id="line172"
     style="stroke:#000000;stroke-width:1" />
  <line
     x1="345.5"
     y1="120.5"
     x2="355.5"
     y2="120.5"
     id="line174"
     style="stroke:#000000;stroke-width:1" />
  <line
     x1="245.5"
     y1="72.5"
     x2="230.5"
     y2="72.5"
     id="line176"
     style="stroke:#000000;stroke-width:1" />
  <line
     x1="355.5"
     y1="120.5"
     x2="355.5"
     y2="130.5"
     id="line178"
     style="stroke:#000000;stroke-width:1" />
  <line
     x1="230.5"
     y1="72.5"
     x2="230.5"
     y2="57.5"
     id="line180"
     style="stroke:#000000;stroke-width:1" />
  <line
     x1="355.5"
     y1="130.5"
     x2="365.5"
     y2="130.5"
     id="line182"
     style="stroke:#000000;stroke-width:1" />
  <line
     x1="230.5"
     y1="57.5"
     x2="230.5"
     y2="42.5"
     id="line184"
     style="stroke:#000000;stroke-width:1" />
  <line
     x1="365.5"
     y1="130.5"
     x2="375.5"
     y2="130.5"
     id="line186"
     style="stroke:#000000;stroke-width:1" />
  <line
     x1="230.5"
     y1="42.5"
     x2="245.5"
     y2="42.5"
     id="line188"
     style="stroke:#000000;stroke-width:1" />
  <line
     x1="375.5"
     y1="130.5"
     x2="375.5"
     y2="120.5"
     id="line190"
     style="stroke:#000000;stroke-width:1" />
  <line
     x1="245.5"
     y1="42.5"
     x2="245.5"
     y2="57.5"
     id="line192"
     style="stroke:#000000;stroke-width:1" />
  <line
     x1="375.5"
     y1="120.5"
     x2="365.5"
     y2="120.5"
     id="line194"
     style="stroke:#000000;stroke-width:1" />
  <line
     x1="245.5"
     y1="57.5"
     x2="260.5"
     y2="57.5"
     id="line196"
     style="stroke:#000000;stroke-width:1" />
  <line
     x1="365.5"
     y1="120.5"
     x2="365.5"
     y2="110.5"
     id="line198"
     style="stroke:#000000;stroke-width:1" />
  <line
     x1="260.5"
     y1="57.5"
     x2="260.5"
     y2="42.5"
     id="line200"
     style="stroke:#000000;stroke-width:1" />
  <line
     x1="365.5"
     y1="110.5"
     x2="375.5"
     y2="110.5"
     id="line202"
     style="stroke:#000000;stroke-width:1" />
  <line
     x1="260.5"
     y1="42.5"
     x2="275.5"
     y2="42.5"
     id="line204"
     style="stroke:#000000;stroke-width:1" />
  <line
     x1="375.5"
     y1="110.5"
     x2="375.5"
     y2="100.5"
     id="line206"
     style="stroke:#000000;stroke-width:1" />
  <line
     x1="275.5"
     y1="42.5"
     x2="275.5"
     y2="57.5"
     id="line208"
     style="stroke:#000000;stroke-width:1" />
  <line
     x1="375.5"
     y1="100.5"
     x2="365.5"
     y2="100.5"
     id="line210"
     style="stroke:#000000;stroke-width:1" />
  <line
     x1="275.5"
     y1="57.5"
     x2="275.5"
     y2="72.5"
     id="line212"
     style="stroke:#000000;stroke-width:1" />
  <line
     x1="365.5"
     y1="100.5"
     x2="355.5"
     y2="100.5"
     id="line214"
     style="stroke:#000000;stroke-width:1" />
  <line
     x1="275.5"
     y1="72.5"
     x2="260.5"
     y2="72.5"
     id="line216"
     style="stroke:#000000;stroke-width:1" />
  <line
     x1="355.5"
     y1="100.5"
     x2="355.5"
     y2="110.5"
     id="line218"
     style="stroke:#000000;stroke-width:1" />
  <line
     x1="260.5"
     y1="72.5"
     x2="260.5"
     y2="87.5"
     id="line220"
     style="stroke:#000000;stroke-width:1" />
  <line
     x1="355.5"
     y1="110.5"
     x2="345.5"
     y2="110.5"
     id="line222"
     style="stroke:#000000;stroke-width:1" />
  <line
     x1="260.5"
     y1="87.5"
     x2="275.5"
     y2="87.5"
     id="line224"
     style="stroke:#000000;stroke-width:1" />
  <line
     x1="345.5"
     y1="110.5"
     x2="345.5"
     y2="100.5"
     id="line226"
     style="stroke:#000000;stroke-width:1" />
  <line
     x1="275.5"
     y1="87.5"
     x2="275.5"
     y2="102.5"
     id="line228"
     style="stroke:#000000;stroke-width:1" />
  <line
     x1="345.5"
     y1="100.5"
     x2="335.5"
     y2="100.5"
     id="line230"
     style="stroke:#000000;stroke-width:1" />
  <line
     x1="275.5"
     y1="102.5"
     x2="275.5"
     y2="117.5"
     id="line232"
     style="stroke:#000000;stroke-width:1" />
  <line
     x1="335.5"
     y1="100.5"
     x2="325.5"
     y2="100.5"
     id="line234"
     style="stroke:#000000;stroke-width:1" />
  <line
     x1="275.5"
     y1="117.5"
     x2="260.5"
     y2="117.5"
     id="line236"
     style="stroke:#000000;stroke-width:1" />
  <line
     x1="325.5"
     y1="100.5"
     x2="325.5"
     y2="110.5"
     id="line238"
     style="stroke:#000000;stroke-width:1" />
  <line
     x1="260.5"
     y1="117.5"
     x2="260.5"
     y2="102.5"
     id="line240"
     style="stroke:#000000;stroke-width:1" />
  <line
     x1="325.5"
     y1="110.5"
     x2="335.5"
     y2="110.5"
     id="line242"
     style="stroke:#000000;stroke-width:1" />
  <line
     x1="260.5"
     y1="102.5"
     x2="245.5"
     y2="102.5"
     id="line244"
     style="stroke:#000000;stroke-width:1" />
  <line
     x1="335.5"
     y1="110.5"
     x2="335.5"
     y2="120.5"
     id="line246"
     style="stroke:#000000;stroke-width:1" />
  <line
     x1="245.5"
     y1="102.5"
     x2="230.5"
     y2="102.5"
     id="line248"
     style="stroke:#000000;stroke-width:1" />
  <line
     x1="335.5"
     y1="120.5"
     x2="335.5"
     y2="130.5"
     id="line250"
     style="stroke:#000000;stroke-width:1" />
  <line
     x1="230.5"
     y1="102.5"
     x2="230.5"
     y2="117.5"
     id="line252"
     style="stroke:#000000;stroke-width:1" />
  <line
     x1="335.5"
     y1="130.5"
     x2="325.5"
     y2="130.5"
     id="line254"
     style="stroke:#000000;stroke-width:1" />
  <line
     x1="230.5"
     y1="117.5"
     x2="245.5"
     y2="117.5"
     id="line256"
     style="stroke:#000000;stroke-width:1" />
  <line
     x1="325.5"
     y1="130.5"
     x2="325.5"
     y2="120.5"
     id="line258"
     style="stroke:#000000;stroke-width:1" />
  <line
     x1="245.5"
     y1="117.5"
     x2="245.5"
     y2="132.5"
     id="line260"
     style="stroke:#000000;stroke-width:1" />
  <line
     x1="325.5"
     y1="120.5"
     x2="315.5"
     y2="120.5"
     id="line262"
     style="stroke:#000000;stroke-width:1" />
  <line
     x1="245.5"
     y1="132.5"
     x2="230.5"
     y2="132.5"
     id="line264"
     style="stroke:#000000;stroke-width:1" />
  <line
     x1="315.5"
     y1="120.5"
     x2="315.5"
     y2="130.5"
     id="line266"
     style="stroke:#000000;stroke-width:1" />
  <line
     x1="230.5"
     y1="132.5"
     x2="230.5"
     y2="147.5"
     id="line268"
     style="stroke:#000000;stroke-width:1" />
  <line
     x1="315.5"
     y1="130.5"
     x2="305.5"
     y2="130.5"
     id="line270"
     style="stroke:#000000;stroke-width:1" />
  <line
     x1="230.5"
     y1="147.5"
     x2="245.5"
     y2="147.5"
     id="line272"
     style="stroke:#000000;stroke-width:1" />
  <line
     x1="305.5"
     y1="130.5"
     x2="305.5"
     y2="120.5"
     id="line274"
     style="stroke:#000000;stroke-width:1" />
  <line
     x1="245.5"
     y1="147.5"
     x2="260.5"
     y2="147.5"
     id="line276"
     style="stroke:#000000;stroke-width:1" />
  <line
     x1="305.5"
     y1="120.5"
     x2="305.5"
     y2="110.5"
     id="line278"
     style="stroke:#000000;stroke-width:1" />
  <line
     x1="260.5"
     y1="147.5"
     x2="260.5"
     y2="132.5"
     id="line280"
     style="stroke:#000000;stroke-width:1" />
  <line
     x1="305.5"
     y1="110.5"
     x2="315.5"
     y2="110.5"
     id="line282"
     style="stroke:#000000;stroke-width:1" />
  <line
     x1="260.5"
     y1="132.5"
     x2="275.5"
     y2="132.5"
     id="line284"
     style="stroke:#000000;stroke-width:1" />
  <line
     x1="315.5"
     y1="110.5"
     x2="315.5"
     y2="100.5"
     id="line286"
     style="stroke:#000000;stroke-width:1" />
  <line
     x1="275.5"
     y1="132.5"
     x2="275.5"
     y2="147.5"
     id="line288"
     style="stroke:#000000;stroke-width:1" />
  <line
     x1="315.5"
     y1="100.5"
     x2="305.5"
     y2="100.5"
     id="line290"
     style="stroke:#000000;stroke-width:1" />
  <line
     x1="305.5"
     y1="100.5"
     x2="305.5"
     y2="90.5"
     id="line292"
     style="stroke:#000000;stroke-width:1" />
  <line
     x1="305.5"
     y1="90.5"
     x2="305.5"
     y2="80.5"
     id="line294"
     style="stroke:#000000;stroke-width:1" />
  <line
     x1="305.5"
     y1="80.5"
     x2="315.5"
     y2="80.5"
     id="line296"
     style="stroke:#000000;stroke-width:1" />
  <line
     x1="315.5"
     y1="80.5"
     x2="315.5"
     y2="90.5"
     id="line298"
     style="stroke:#000000;stroke-width:1" />
  <line
     x1="315.5"
     y1="90.5"
     x2="325.5"
     y2="90.5"
     id="line300"
     style="stroke:#000000;stroke-width:1" />
  <line
     x1="325.5"
     y1="90.5"
     x2="335.5"
     y2="90.5"
     id="line302"
     style="stroke:#000000;stroke-width:1" />
  <line
     x1="335.5"
     y1="90.5"
     x2="335.5"
     y2="80.5"
     id="line304"
     style="stroke:#000000;stroke-width:1" />
  <line
     x1="335.5"
     y1="80.5"
     x2="325.5"
     y2="80.5"
     id="line306"
     style="stroke:#000000;stroke-width:1" />
  <line
     x1="325.5"
     y1="80.5"
     x2="325.5"
     y2="70.5"
     id="line308"
     style="stroke:#000000;stroke-width:1" />
  <line
     x1="325.5"
     y1="70.5"
     x2="335.5"
     y2="70.5"
     id="line310"
     style="stroke:#000000;stroke-width:1" />
  <line
     x1="335.5"
     y1="70.5"
     x2="335.5"
     y2="60.5"
     id="line312"
     style="stroke:#000000;stroke-width:1" />
  <line
     x1="335.5"
     y1="60.5"
     x2="325.5"
     y2="60.5"
     id="line314"
     style="stroke:#000000;stroke-width:1" />
  <line
     x1="325.5"
     y1="60.5"
     x2="315.5"
     y2="60.5"
     id="line316"
     style="stroke:#000000;stroke-width:1" />
  <line
     x1="315.5"
     y1="60.5"
     x2="315.5"
     y2="70.5"
     id="line318"
     style="stroke:#000000;stroke-width:1" />
  <line
     x1="315.5"
     y1="70.5"
     x2="305.5"
     y2="70.5"
     id="line320"
     style="stroke:#000000;stroke-width:1" />
  <line
     x1="305.5"
     y1="70.5"
     x2="305.5"
     y2="60.5"
     id="line322"
     style="stroke:#000000;stroke-width:1" />
  <line
     x1="305.5"
     y1="60.5"
     x2="305.5"
     y2="50.5"
     id="line324"
     style="stroke:#000000;stroke-width:1" />
  <line
     x1="305.5"
     y1="50.5"
     x2="315.5"
     y2="50.5"
     id="line326"
     style="stroke:#000000;stroke-width:1" />
  <line
     x1="315.5"
     y1="50.5"
     x2="315.5"
     y2="40.5"
     id="line328"
     style="stroke:#000000;stroke-width:1" />
  <line
     x1="315.5"
     y1="40.5"
     x2="305.5"
     y2="40.5"
     id="line330"
     style="stroke:#000000;stroke-width:1" />
  <line
     x1="305.5"
     y1="40.5"
     x2="305.5"
     y2="30.5"
     id="line332"
     style="stroke:#000000;stroke-width:1" />
  <line
     x1="305.5"
     y1="30.5"
     x2="305.5"
     y2="20.5"
     id="line334"
     style="stroke:#000000;stroke-width:1" />
  <line
     x1="305.5"
     y1="20.5"
     x2="315.5"
     y2="20.5"
     id="line336"
     style="stroke:#000000;stroke-width:1" />
  <line
     x1="315.5"
     y1="20.5"
     x2="315.5"
     y2="30.5"
     id="line338"
     style="stroke:#000000;stroke-width:1" />
  <line
     x1="315.5"
     y1="30.5"
     x2="325.5"
     y2="30.5"
     id="line340"
     style="stroke:#000000;stroke-width:1" />
  <line
     x1="325.5"
     y1="30.5"
     x2="325.5"
     y2="20.5"
     id="line342"
     style="stroke:#000000;stroke-width:1" />
  <line
     x1="325.5"
     y1="20.5"
     x2="335.5"
     y2="20.5"
     id="line344"
     style="stroke:#000000;stroke-width:1" />
  <line
     x1="335.5"
     y1="20.5"
     x2="335.5"
     y2="30.5"
     id="line346"
     style="stroke:#000000;stroke-width:1" />
  <line
     x1="335.5"
     y1="30.5"
     x2="335.5"
     y2="40.5"
     id="line348"
     style="stroke:#000000;stroke-width:1" />
  <line
     x1="335.5"
     y1="40.5"
     x2="325.5"
     y2="40.5"
     id="line350"
     style="stroke:#000000;stroke-width:1" />
  <line
     x1="325.5"
     y1="40.5"
     x2="325.5"
     y2="50.5"
     id="line352"
     style="stroke:#000000;stroke-width:1" />
  <line
     x1="325.5"
     y1="50.5"
     x2="335.5"
     y2="50.5"
     id="line354"
     style="stroke:#000000;stroke-width:1" />
  <line
     x1="335.5"
     y1="50.5"
     x2="345.5"
     y2="50.5"
     id="line356"
     style="stroke:#000000;stroke-width:1" />
  <line
     x1="345.5"
     y1="50.5"
     x2="355.5"
     y2="50.5"
     id="line358"
     style="stroke:#000000;stroke-width:1" />
  <line
     x1="355.5"
     y1="50.5"
     x2="355.5"
     y2="40.5"
     id="line360"
     style="stroke:#000000;stroke-width:1" />
  <line
     x1="355.5"
     y1="40.5"
     x2="345.5"
     y2="40.5"
     id="line362"
     style="stroke:#000000;stroke-width:1" />
  <line
     x1="345.5"
     y1="40.5"
     x2="345.5"
     y2="30.5"
     id="line364"
     style="stroke:#000000;stroke-width:1" />
  <line
     x1="345.5"
     y1="30.5"
     x2="345.5"
     y2="20.5"
     id="line366"
     style="stroke:#000000;stroke-width:1" />
  <line
     x1="345.5"
     y1="20.5"
     x2="355.5"
     y2="20.5"
     id="line368"
     style="stroke:#000000;stroke-width:1" />
  <line
     x1="355.5"
     y1="20.5"
     x2="355.5"
     y2="30.5"
     id="line370"
     style="stroke:#000000;stroke-width:1" />
  <line
     x1="355.5"
     y1="30.5"
     x2="365.5"
     y2="30.5"
     id="line372"
     style="stroke:#000000;stroke-width:1" />
  <line
     x1="365.5"
     y1="30.5"
     x2="365.5"
     y2="20.5"
     id="line374"
     style="stroke:#000000;stroke-width:1" />
  <line
     x1="365.5"
     y1="20.5"
     x2="375.5"
     y2="20.5"
     id="line376"
     style="stroke:#000000;stroke-width:1" />
  <line
     x1="375.5"
     y1="20.5"
     x2="375.5"
     y2="30.5"
     id="line378"
     style="stroke:#000000;stroke-width:1" />
  <line
     x1="375.5"
     y1="30.5"
     x2="375.5"
     y2="40.5"
     id="line380"
     style="stroke:#000000;stroke-width:1" />
  <line
     x1="375.5"
     y1="40.5"
     x2="365.5"
     y2="40.5"
     id="line382"
     style="stroke:#000000;stroke-width:1" />
  <line
     x1="365.5"
     y1="40.5"
     x2="365.5"
     y2="50.5"
     id="line384"
     style="stroke:#000000;stroke-width:1" />
  <line
     x1="365.5"
     y1="50.5"
     x2="375.5"
     y2="50.5"
     id="line386"
     style="stroke:#000000;stroke-width:1" />
  <line
     x1="375.5"
     y1="50.5"
     x2="375.5"
     y2="60.5"
     id="line388"
     style="stroke:#000000;stroke-width:1" />
  <line
     x1="375.5"
     y1="60.5"
     x2="375.5"
     y2="70.5"
     id="line390"
     style="stroke:#000000;stroke-width:1" />
  <line
     x1="375.5"
     y1="70.5"
     x2="365.5"
     y2="70.5"
     id="line392"
     style="stroke:#000000;stroke-width:1" />
  <line
     x1="365.5"
     y1="70.5"
     x2="365.5"
     y2="60.5"
     id="line394"
     style="stroke:#000000;stroke-width:1" />
  <line
     x1="365.5"
     y1="60.5"
     x2="355.5"
     y2="60.5"
     id="line396"
     style="stroke:#000000;stroke-width:1" />
  <line
     x1="355.5"
     y1="60.5"
     x2="345.5"
     y2="60.5"
     id="line398"
     style="stroke:#000000;stroke-width:1" />
  <line
     x1="345.5"
     y1="60.5"
     x2="345.5"
     y2="70.5"
     id="line400"
     style="stroke:#000000;stroke-width:1" />
  <line
     x1="345.5"
     y1="70.5"
     x2="355.5"
     y2="70.5"
     id="line402"
     style="stroke:#000000;stroke-width:1" />
  <line
     x1="355.5"
     y1="70.5"
     x2="355.5"
     y2="80.5"
     id="line404"
     style="stroke:#000000;stroke-width:1" />
  <line
     x1="355.5"
     y1="80.5"
     x2="345.5"
     y2="80.5"
     id="line406"
     style="stroke:#000000;stroke-width:1" />
  <line
     x1="345.5"
     y1="80.5"
     x2="345.5"
     y2="90.5"
     id="line408"
     style="stroke:#000000;stroke-width:1" />
  <line
     x1="345.5"
     y1="90.5"
     x2="355.5"
     y2="90.5"
     id="line410"
     style="stroke:#000000;stroke-width:1" />
  <line
     x1="355.5"
     y1="90.5"
     x2="365.5"
     y2="90.5"
     id="line412"
     style="stroke:#000000;stroke-width:1" />
  <line
     x1="365.5"
     y1="90.5"
     x2="365.5"
     y2="80.5"
     id="line414"
     style="stroke:#000000;stroke-width:1" />
  <line
     x1="365.5"
     y1="80.5"
     x2="375.5"
     y2="80.5"
     id="line416"
     style="stroke:#000000;stroke-width:1" />
  <line
     x1="375.5"
     y1="80.5"
     x2="375.5"
     y2="90.5"
     id="line418"
     style="stroke:#000000;stroke-width:1" />
  <line
     x1="375.5"
     y1="90.5"
     x2="385.5"
     y2="90.5"
     id="line420"
     style="stroke:#000000;stroke-width:1" />
  <line
     x1="385.5"
     y1="90.5"
     x2="385.5"
     y2="80.5"
     id="line422"
     style="stroke:#000000;stroke-width:1" />
  <line
     x1="385.5"
     y1="80.5"
     x2="395.5"
     y2="80.5"
     id="line424"
     style="stroke:#000000;stroke-width:1" />
  <line
     x1="395.5"
     y1="80.5"
     x2="395.5"
     y2="90.5"
     id="line426"
     style="stroke:#000000;stroke-width:1" />
  <line
     x1="395.5"
     y1="90.5"
     x2="405.5"
     y2="90.5"
     id="line428"
     style="stroke:#000000;stroke-width:1" />
  <line
     x1="405.5"
     y1="90.5"
     x2="415.5"
     y2="90.5"
     id="line430"
     style="stroke:#000000;stroke-width:1" />
  <line
     x1="415.5"
     y1="90.5"
     x2="415.5"
     y2="80.5"
     id="line432"
     style="stroke:#000000;stroke-width:1" />
  <line
     x1="415.5"
     y1="80.5"
     x2="405.5"
     y2="80.5"
     id="line434"
     style="stroke:#000000;stroke-width:1" />
  <line
     x1="405.5"
     y1="80.5"
     x2="405.5"
     y2="70.5"
     id="line436"
     style="stroke:#000000;stroke-width:1" />
  <line
     x1="405.5"
     y1="70.5"
     x2="415.5"
     y2="70.5"
     id="line438"
     style="stroke:#000000;stroke-width:1" />
  <line
     x1="415.5"
     y1="70.5"
     x2="415.5"
     y2="60.5"
     id="line440"
     style="stroke:#000000;stroke-width:1" />
  <line
     x1="415.5"
     y1="60.5"
     x2="405.5"
     y2="60.5"
     id="line442"
     style="stroke:#000000;stroke-width:1" />
  <line
     x1="405.5"
     y1="60.5"
     x2="395.5"
     y2="60.5"
     id="line444"
     style="stroke:#000000;stroke-width:1" />
  <line
     x1="395.5"
     y1="60.5"
     x2="395.5"
     y2="70.5"
     id="line446"
     style="stroke:#000000;stroke-width:1" />
  <line
     x1="395.5"
     y1="70.5"
     x2="385.5"
     y2="70.5"
     id="line448"
     style="stroke:#000000;stroke-width:1" />
  <line
     x1="385.5"
     y1="70.5"
     x2="385.5"
     y2="60.5"
     id="line450"
     style="stroke:#000000;stroke-width:1" />
  <line
     x1="385.5"
     y1="60.5"
     x2="385.5"
     y2="50.5"
     id="line452"
     style="stroke:#000000;stroke-width:1" />
  <line
     x1="385.5"
     y1="50.5"
     x2="395.5"
     y2="50.5"
     id="line454"
     style="stroke:#000000;stroke-width:1" />
  <line
     x1="395.5"
     y1="50.5"
     x2="395.5"
     y2="40.5"
     id="line456"
     style="stroke:#000000;stroke-width:1" />
  <line
     x1="395.5"
     y1="40.5"
     x2="385.5"
     y2="40.5"
     id="line458"
     style="stroke:#000000;stroke-width:1" />
  <line
     x1="385.5"
     y1="40.5"
     x2="385.5"
     y2="30.5"
     id="line460"
     style="stroke:#000000;stroke-width:1" />
  <line
     x1="385.5"
     y1="30.5"
     x2="385.5"
     y2="20.5"
     id="line462"
     style="stroke:#000000;stroke-width:1" />
  <line
     x1="385.5"
     y1="20.5"
     x2="395.5"
     y2="20.5"
     id="line464"
     style="stroke:#000000;stroke-width:1" />
  <line
     x1="395.5"
     y1="20.5"
     x2="395.5"
     y2="30.5"
     id="line466"
     style="stroke:#000000;stroke-width:1" />
  <line
     x1="395.5"
     y1="30.5"
     x2="405.5"
     y2="30.5"
     id="line468"
     style="stroke:#000000;stroke-width:1" />
  <line
     x1="405.5"
     y1="30.5"
     x2="405.5"
     y2="20.5"
     id="line470"
     style="stroke:#000000;stroke-width:1" />
  <line
     x1="405.5"
     y1="20.5"
     x2="415.5"
     y2="20.5"
     id="line472"
     style="stroke:#000000;stroke-width:1" />
  <line
     x1="415.5"
     y1="20.5"
     x2="415.5"
     y2="30.5"
     id="line474"
     style="stroke:#000000;stroke-width:1" />
  <line
     x1="415.5"
     y1="30.5"
     x2="415.5"
     y2="40.5"
     id="line476"
     style="stroke:#000000;stroke-width:1" />
  <line
     x1="415.5"
     y1="40.5"
     x2="405.5"
     y2="40.5"
     id="line478"
     style="stroke:#000000;stroke-width:1" />
  <line
     x1="405.5"
     y1="40.5"
     x2="405.5"
     y2="50.5"
     id="line480"
     style="stroke:#000000;stroke-width:1" />
  <line
     x1="405.5"
     y1="50.5"
     x2="415.5"
     y2="50.5"
     id="line482"
     style="stroke:#000000;stroke-width:1" />
  <line
     x1="415.5"
     y1="50.5"
     x2="425.5"
     y2="50.5"
     id="line484"
     style="stroke:#000000;stroke-width:1" />
  <line
     x1="425.5"
     y1="50.5"
     x2="435.5"
     y2="50.5"
     id="line486"
     style="stroke:#000000;stroke-width:1" />
  <line
     x1="435.5"
     y1="50.5"
     x2="435.5"
     y2="40.5"
     id="line488"
     style="stroke:#000000;stroke-width:1" />
  <line
     x1="435.5"
     y1="40.5"
     x2="425.5"
     y2="40.5"
     id="line490"
     style="stroke:#000000;stroke-width:1" />
  <line
     x1="425.5"
     y1="40.5"
     x2="425.5"
     y2="30.5"
     id="line492"
     style="stroke:#000000;stroke-width:1" />
  <line
     x1="425.5"
     y1="30.5"
     x2="425.5"
     y2="20.5"
     id="line494"
     style="stroke:#000000;stroke-width:1" />
  <line
     x1="425.5"
     y1="20.5"
     x2="435.5"
     y2="20.5"
     id="line496"
     style="stroke:#000000;stroke-width:1" />
  <line
     x1="435.5"
     y1="20.5"
     x2="435.5"
     y2="30.5"
     id="line498"
     style="stroke:#000000;stroke-width:1" />
  <line
     x1="435.5"
     y1="30.5"
     x2="445.5"
     y2="30.5"
     id="line500"
     style="stroke:#000000;stroke-width:1" />
  <line
     x1="445.5"
     y1="30.5"
     x2="445.5"
     y2="20.5"
     id="line502"
     style="stroke:#000000;stroke-width:1" />
  <line
     x1="445.5"
     y1="20.5"
     x2="455.5"
     y2="20.5"
     id="line504"
     style="stroke:#000000;stroke-width:1" />
  <line
     x1="455.5"
     y1="20.5"
     x2="455.5"
     y2="30.5"
     id="line506"
     style="stroke:#000000;stroke-width:1" />
  <line
     x1="455.5"
     y1="30.5"
     x2="455.5"
     y2="40.5"
     id="line508"
     style="stroke:#000000;stroke-width:1" />
  <line
     x1="455.5"
     y1="40.5"
     x2="445.5"
     y2="40.5"
     id="line510"
     style="stroke:#000000;stroke-width:1" />
  <line
     x1="445.5"
     y1="40.5"
     x2="445.5"
     y2="50.5"
     id="line512"
     style="stroke:#000000;stroke-width:1" />
  <line
     x1="445.5"
     y1="50.5"
     x2="455.5"
     y2="50.5"
     id="line514"
     style="stroke:#000000;stroke-width:1" />
  <line
     x1="455.5"
     y1="50.5"
     x2="455.5"
     y2="60.5"
     id="line516"
     style="stroke:#000000;stroke-width:1" />
  <line
     x1="455.5"
     y1="60.5"
     x2="455.5"
     y2="70.5"
     id="line518"
     style="stroke:#000000;stroke-width:1" />
  <line
     x1="455.5"
     y1="70.5"
     x2="445.5"
     y2="70.5"
     id="line520"
     style="stroke:#000000;stroke-width:1" />
  <line
     x1="445.5"
     y1="70.5"
     x2="445.5"
     y2="60.5"
     id="line522"
     style="stroke:#000000;stroke-width:1" />
  <line
     x1="445.5"
     y1="60.5"
     x2="435.5"
     y2="60.5"
     id="line524"
     style="stroke:#000000;stroke-width:1" />
  <line
     x1="435.5"
     y1="60.5"
     x2="425.5"
     y2="60.5"
     id="line526"
     style="stroke:#000000;stroke-width:1" />
  <line
     x1="425.5"
     y1="60.5"
     x2="425.5"
     y2="70.5"
     id="line528"
     style="stroke:#000000;stroke-width:1" />
  <line
     x1="425.5"
     y1="70.5"
     x2="435.5"
     y2="70.5"
     id="line530"
     style="stroke:#000000;stroke-width:1" />
  <line
     x1="435.5"
     y1="70.5"
     x2="435.5"
     y2="80.5"
     id="line532"
     style="stroke:#000000;stroke-width:1" />
  <line
     x1="435.5"
     y1="80.5"
     x2="425.5"
     y2="80.5"
     id="line534"
     style="stroke:#000000;stroke-width:1" />
  <line
     x1="425.5"
     y1="80.5"
     x2="425.5"
     y2="90.5"
     id="line536"
     style="stroke:#000000;stroke-width:1" />
  <line
     x1="425.5"
     y1="90.5"
     x2="435.5"
     y2="90.5"
     id="line538"
     style="stroke:#000000;stroke-width:1" />
  <line
     x1="435.5"
     y1="90.5"
     x2="445.5"
     y2="90.5"
     id="line540"
     style="stroke:#000000;stroke-width:1" />
  <line
     x1="445.5"
     y1="90.5"
     x2="445.5"
     y2="80.5"
     id="line542"
     style="stroke:#000000;stroke-width:1" />
  <line
     x1="445.5"
     y1="80.5"
     x2="455.5"
     y2="80.5"
     id="line544"
     style="stroke:#000000;stroke-width:1" />
  <line
     x1="455.5"
     y1="80.5"
     x2="455.5"
     y2="90.5"
     id="line546"
     style="stroke:#000000;stroke-width:1" />
  <line
     x1="455.5"
     y1="90.5"
     x2="455.5"
     y2="100.5"
     id="line548"
     style="stroke:#000000;stroke-width:1" />
  <line
     x1="455.5"
     y1="100.5"
     x2="445.5"
     y2="100.5"
     id="line550"
     style="stroke:#000000;stroke-width:1" />
  <line
     x1="445.5"
     y1="100.5"
     x2="445.5"
     y2="110.5"
     id="line552"
     style="stroke:#000000;stroke-width:1" />
  <line
     x1="445.5"
     y1="110.5"
     x2="455.5"
     y2="110.5"
     id="line554"
     style="stroke:#000000;stroke-width:1" />
  <line
     x1="455.5"
     y1="110.5"
     x2="455.5"
     y2="120.5"
     id="line556"
     style="stroke:#000000;stroke-width:1" />
  <line
     x1="455.5"
     y1="120.5"
     x2="455.5"
     y2="130.5"
     id="line558"
     style="stroke:#000000;stroke-width:1" />
  <line
     x1="455.5"
     y1="130.5"
     x2="445.5"
     y2="130.5"
     id="line560"
     style="stroke:#000000;stroke-width:1" />
  <line
     x1="445.5"
     y1="130.5"
     x2="445.5"
     y2="120.5"
     id="line562"
     style="stroke:#000000;stroke-width:1" />
  <line
     x1="445.5"
     y1="120.5"
     x2="435.5"
     y2="120.5"
     id="line564"
     style="stroke:#000000;stroke-width:1" />
  <line
     x1="435.5"
     y1="120.5"
     x2="435.5"
     y2="130.5"
     id="line566"
     style="stroke:#000000;stroke-width:1" />
  <line
     x1="435.5"
     y1="130.5"
     x2="425.5"
     y2="130.5"
     id="line568"
     style="stroke:#000000;stroke-width:1" />
  <line
     x1="425.5"
     y1="130.5"
     x2="425.5"
     y2="120.5"
     id="line570"
     style="stroke:#000000;stroke-width:1" />
  <line
     x1="425.5"
     y1="120.5"
     x2="425.5"
     y2="110.5"
     id="line572"
     style="stroke:#000000;stroke-width:1" />
  <line
     x1="425.5"
     y1="110.5"
     x2="435.5"
     y2="110.5"
     id="line574"
     style="stroke:#000000;stroke-width:1" />
  <line
     x1="435.5"
     y1="110.5"
     x2="435.5"
     y2="100.5"
     id="line576"
     style="stroke:#000000;stroke-width:1" />
  <line
     x1="435.5"
     y1="100.5"
     x2="425.5"
     y2="100.5"
     id="line578"
     style="stroke:#000000;stroke-width:1" />
  <line
     x1="425.5"
     y1="100.5"
     x2="415.5"
     y2="100.5"
     id="line580"
     style="stroke:#000000;stroke-width:1" />
  <line
     x1="415.5"
     y1="100.5"
     x2="415.5"
     y2="110.5"
     id="line582"
     style="stroke:#000000;stroke-width:1" />
  <line
     x1="415.5"
     y1="110.5"
     x2="405.5"
     y2="110.5"
     id="line584"
     style="stroke:#000000;stroke-width:1" />
  <line
     x1="405.5"
     y1="110.5"
     x2="405.5"
     y2="100.5"
     id="line586"
     style="stroke:#000000;stroke-width:1" />
  <line
     x1="405.5"
     y1="100.5"
     x2="395.5"
     y2="100.5"
     id="line588"
     style="stroke:#000000;stroke-width:1" />
  <line
     x1="395.5"
     y1="100.5"
     x2="385.5"
     y2="100.5"
     id="line590"
     style="stroke:#000000;stroke-width:1" />
  <line
     x1="385.5"
     y1="100.5"
     x2="385.5"
     y2="110.5"
     id="line592"
     style="stroke:#000000;stroke-width:1" />
  <line
     x1="385.5"
     y1="110.5"
     x2="395.5"
     y2="110.5"
     id="line594"
     style="stroke:#000000;stroke-width:1" />
  <line
     x1="395.5"
     y1="110.5"
     x2="395.5"
     y2="120.5"
     id="line596"
     style="stroke:#000000;stroke-width:1" />
  <line
     x1="395.5"
     y1="120.5"
     x2="385.5"
     y2="120.5"
     id="line598"
     style="stroke:#000000;stroke-width:1" />
  <line
     x1="385.5"
     y1="120.5"
     x2="385.5"
     y2="130.5"
     id="line600"
     style="stroke:#000000;stroke-width:1" />
  <line
     x1="385.5"
     y1="130.5"
     x2="395.5"
     y2="130.5"
     id="line602"
     style="stroke:#000000;stroke-width:1" />
  <line
     x1="395.5"
     y1="130.5"
     x2="405.5"
     y2="130.5"
     id="line604"
     style="stroke:#000000;stroke-width:1" />
  <line
     x1="405.5"
     y1="130.5"
     x2="405.5"
     y2="120.5"
     id="line606"
     style="stroke:#000000;stroke-width:1" />
  <line
     x1="405.5"
     y1="120.5"
     x2="415.5"
     y2="120.5"
     id="line608"
     style="stroke:#000000;stroke-width:1" />
  <line
     x1="415.5"
     y1="120.5"
     x2="415.5"
     y2="130.5"
     id="line610"
     style="stroke:#000000;stroke-width:1" />
  <line
     x1="415.5"
     y1="130.5"
     x2="415.5"
     y2="140.5"
     id="line612"
     style="stroke:#000000;stroke-width:1" />
  <line
     x1="415.5"
     y1="140.5"
     x2="415.5"
     y2="150.5"
     id="line614"
     style="stroke:#000000;stroke-width:1" />
  <line
     x1="415.5"
     y1="150.5"
     x2="405.5"
     y2="150.5"
     id="line616"
     style="stroke:#000000;stroke-width:1" />
  <line
     x1="405.5"
     y1="150.5"
     x2="405.5"
     y2="140.5"
     id="line618"
     style="stroke:#000000;stroke-width:1" />
  <line
     x1="405.5"
     y1="140.5"
     x2="395.5"
     y2="140.5"
     id="line620"
     style="stroke:#000000;stroke-width:1" />
  <line
     x1="395.5"
     y1="140.5"
     x2="385.5"
     y2="140.5"
     id="line622"
     style="stroke:#000000;stroke-width:1" />
  <line
     x1="385.5"
     y1="140.5"
     x2="385.5"
     y2="150.5"
     id="line624"
     style="stroke:#000000;stroke-width:1" />
  <line
     x1="385.5"
     y1="150.5"
     x2="395.5"
     y2="150.5"
     id="line626"
     style="stroke:#000000;stroke-width:1" />
  <line
     x1="395.5"
     y1="150.5"
     x2="395.5"
     y2="160.5"
     id="line628"
     style="stroke:#000000;stroke-width:1" />
  <line
     x1="395.5"
     y1="160.5"
     x2="385.5"
     y2="160.5"
     id="line630"
     style="stroke:#000000;stroke-width:1" />
  <line
     x1="385.5"
     y1="160.5"
     x2="385.5"
     y2="170.5"
     id="line632"
     style="stroke:#000000;stroke-width:1" />
  <line
     x1="385.5"
     y1="170.5"
     x2="395.5"
     y2="170.5"
     id="line634"
     style="stroke:#000000;stroke-width:1" />
  <line
     x1="395.5"
     y1="170.5"
     x2="405.5"
     y2="170.5"
     id="line636"
     style="stroke:#000000;stroke-width:1" />
  <line
     x1="405.5"
     y1="170.5"
     x2="405.5"
     y2="160.5"
     id="line638"
     style="stroke:#000000;stroke-width:1" />
  <line
     x1="405.5"
     y1="160.5"
     x2="415.5"
     y2="160.5"
     id="line640"
     style="stroke:#000000;stroke-width:1" />
  <line
     x1="415.5"
     y1="160.5"
     x2="415.5"
     y2="170.5"
     id="line642"
     style="stroke:#000000;stroke-width:1" />
  <line
     x1="415.5"
     y1="170.5"
     x2="425.5"
     y2="170.5"
     id="line644"
     style="stroke:#000000;stroke-width:1" />
  <line
     x1="425.5"
     y1="170.5"
     x2="435.5"
     y2="170.5"
     id="line646"
     style="stroke:#000000;stroke-width:1" />
  <line
     x1="435.5"
     y1="170.5"
     x2="435.5"
     y2="160.5"
     id="line648"
     style="stroke:#000000;stroke-width:1" />
  <line
     x1="435.5"
     y1="160.5"
     x2="425.5"
     y2="160.5"
     id="line650"
     style="stroke:#000000;stroke-width:1" />
  <line
     x1="425.5"
     y1="160.5"
     x2="425.5"
     y2="150.5"
     id="line652"
     style="stroke:#000000;stroke-width:1" />
  <line
     x1="425.5"
     y1="150.5"
     x2="425.5"
     y2="140.5"
     id="line654"
     style="stroke:#000000;stroke-width:1" />
  <line
     x1="425.5"
     y1="140.5"
     x2="435.5"
     y2="140.5"
     id="line656"
     style="stroke:#000000;stroke-width:1" />
  <line
     x1="435.5"
     y1="140.5"
     x2="435.5"
     y2="150.5"
     id="line658"
     style="stroke:#000000;stroke-width:1" />
  <line
     x1="435.5"
     y1="150.5"
     x2="445.5"
     y2="150.5"
     id="line660"
     style="stroke:#000000;stroke-width:1" />
  <line
     x1="445.5"
     y1="150.5"
     x2="445.5"
     y2="140.5"
     id="line662"
     style="stroke:#000000;stroke-width:1" />
  <line
     x1="445.5"
     y1="140.5"
     x2="455.5"
     y2="140.5"
     id="line664"
     style="stroke:#000000;stroke-width:1" />
  <line
     x1="455.5"
     y1="140.5"
     x2="455.5"
     y2="150.5"
     id="line666"
     style="stroke:#000000;stroke-width:1" />
  <line
     x1="455.5"
     y1="150.5"
     x2="455.5"
     y2="160.5"
     id="line668"
     style="stroke:#000000;stroke-width:1" />
  <line
     x1="455.5"
     y1="160.5"
     x2="445.5"
     y2="160.5"
     id="line670"
     style="stroke:#000000;stroke-width:1" />
  <line
     x1="445.5"
     y1="160.5"
     x2="445.5"
     y2="170.5"
     id="line672"
     style="stroke:#000000;stroke-width:1" />
  <line
     x1="445.5"
     y1="170.5"
     x2="455.5"
     y2="170.5"
     id="line674"
     style="stroke:#000000;stroke-width:1" />
</svg>
