<?xml version="1.0" encoding="UTF-8" standalone="no"?>
<!-- Created with Inkscape (http://www.inkscape.org/) -->

<svg
   xmlns:dc="http://purl.org/dc/elements/1.1/"
   xmlns:cc="http://creativecommons.org/ns#"
   xmlns:rdf="http://www.w3.org/1999/02/22-rdf-syntax-ns#"
   xmlns:svg="http://www.w3.org/2000/svg"
   xmlns="http://www.w3.org/2000/svg"
   xmlns:sodipodi="http://sodipodi.sourceforge.net/DTD/sodipodi-0.dtd"
   xmlns:inkscape="http://www.inkscape.org/namespaces/inkscape"
   id="svg3004"
   version="1.1"
   inkscape:version="0.48.3.1 r9886"
   width="560.09784"
   height="404.93317"
   xml:space="preserve"
   sodipodi:docname="soc2.pdf"><metadata
     id="metadata3010"><rdf:RDF><cc:Work
         rdf:about=""><dc:format>image/svg+xml</dc:format><dc:type
           rdf:resource="http://purl.org/dc/dcmitype/StillImage" /><dc:title></dc:title></cc:Work></rdf:RDF></metadata><defs
     id="defs3008" /><sodipodi:namedview
     pagecolor="#ffffff"
     bordercolor="#666666"
     borderopacity="1"
     objecttolerance="10"
     gridtolerance="10"
     guidetolerance="10"
     inkscape:pageopacity="0"
     inkscape:pageshadow="2"
     inkscape:window-width="1440"
     inkscape:window-height="857"
     id="namedview3006"
     showgrid="false"
     fit-margin-top="0"
     fit-margin-left="0"
     fit-margin-right="0"
     fit-margin-bottom="0"
     inkscape:zoom="1.2685909"
     inkscape:cx="214.31678"
     inkscape:cy="206.86997"
     inkscape:window-x="0"
     inkscape:window-y="19"
     inkscape:window-maximized="1"
     inkscape:current-layer="g3012" /><g
     id="g3012"
     inkscape:groupmode="layer"
     inkscape:label="soc2"
     transform="matrix(1.25,0,0,-1.25,-111.55284,773.12432)"><g
       id="g3016"
       transform="translate(378.157,613.77)"><g
         id="g3018"><g
           id="g3020"><g
             transform="translate(-218.616,-2.056)"
             id="g3022"><g
               id="g3024"><g
                 transform="translate(-159.541,-611.714)"
                 id="g3026"><text
                   id="text3028"
                   transform="matrix(1,0,0,-1,159.541,611.714)"><tspan
                     id="tspan3030"
                     sodipodi:role="line"
                     y="0"
                     x="0 5.7272773 11.454555 17.181833 22.909109 28.636387 34.363667 40.090942 45.818218 51.545498 57.272774 63.000053"
                     style="font-size:10.90909958px;font-variant:normal;font-weight:normal;writing-mode:lr-tb;fill:#000000;fill-opacity:1;fill-rule:nonzero;stroke:none;font-family:LMMono10;-inkscape-font-specification:LMMono10-Regular">SegmentTrace</tspan></text>
<g
                   transform="translate(159.541,611.714)"
                   id="g3032" /></g></g><g
               transform="translate(218.616,2.056)"
               id="g3034" /></g></g><g
           id="g3036"><g
             id="g3038"><g
               transform="translate(-212.888,-44.575)"
               id="g3040"><g
                 id="g3042"><g
                   transform="translate(-165.269,-569.195)"
                   id="g3044"><text
                     id="text3046"
                     transform="matrix(1,0,0,-1,165.269,569.195)"><tspan
                       id="tspan3048"
                       sodipodi:role="line"
                       y="0"
                       x="0 5.7272773 11.454555 17.181833 22.909109 28.636387 34.363667 40.090942 45.818218 51.545498"
                       style="font-size:10.90909958px;font-variant:normal;font-weight:normal;writing-mode:lr-tb;fill:#000000;fill-opacity:1;fill-rule:nonzero;stroke:none;font-family:LMMono10;-inkscape-font-specification:LMMono10-Regular">SplitTrace</tspan></text>
<g
                     transform="translate(165.269,569.195)"
                     id="g3050" /></g></g><g
                 transform="translate(212.888,44.575)"
                 id="g3052" /></g></g><path
             inkscape:connector-curvature="0"
             id="path3054"
             style="fill:none;stroke:#000000;stroke-width:0.3985;stroke-linecap:butt;stroke-linejoin:miter;stroke-miterlimit:10;stroke-opacity:1;stroke-dasharray:none"
             d="m -184.25424,-8.31497 1e-5,-25.43198" /><g
             transform="matrix(0,-1,1,0,-184.25423,-33.74695)"
             id="g3056"><g
               id="g3058"><path
                 inkscape:connector-curvature="0"
                 id="path3060"
                 style="fill:none;stroke:#000000;stroke-width:0.31878999;stroke-linecap:round;stroke-linejoin:round;stroke-miterlimit:10;stroke-opacity:1;stroke-dasharray:none"
                 d="M -1.19551,1.59401 C -1.09587,0.99626 0,0.09961 0.29886,0 0,-0.09961 -1.09587,-0.99626 -1.19551,-1.59401" /></g></g><g
             id="g3062"><g
               id="g3064"><g
                 transform="translate(-289.482,-87.095)"
                 id="g3066"><g
                   id="g3068"><g
                     transform="translate(-88.675,-526.675)"
                     id="g3070"><text
                       id="text3072"
                       transform="matrix(1,0,0,-1,88.675,526.675)"><tspan
                         id="tspan3074"
                         sodipodi:role="line"
                         y="0"
                         x="0 5.7272773 11.454555 17.181833 22.909109 28.636387 34.363667 40.090942 45.818218 51.545498 57.272774 63.000053"
                         style="font-size:10.90909958px;font-variant:normal;font-weight:normal;writing-mode:lr-tb;fill:#000000;fill-opacity:1;fill-rule:nonzero;stroke:none;font-family:LMMono10;-inkscape-font-specification:LMMono10-Regular">SegmentTrace</tspan></text>
<g
                       transform="translate(88.675,526.675)"
                       id="g3076" /></g></g><g
                   transform="translate(289.482,87.095)"
                   id="g3078" /></g></g><path
               inkscape:connector-curvature="0"
               id="path3080"
               style="fill:none;stroke:#000000;stroke-width:0.3985;stroke-linecap:butt;stroke-linejoin:miter;stroke-miterlimit:10;stroke-opacity:1;stroke-dasharray:none"
               d="m -198.10762,-50.83519 -42.7657,-25.65352" /><g
               transform="matrix(-0.86127,-0.51663,0.51663,-0.86127,-240.87332,-76.48871)"
               id="g3082"><g
                 id="g3084"><path
                   inkscape:connector-curvature="0"
                   id="path3086"
                   style="fill:none;stroke:#000000;stroke-width:0.31878999;stroke-linecap:round;stroke-linejoin:round;stroke-miterlimit:10;stroke-opacity:1;stroke-dasharray:none"
                   d="M -1.19551,1.59401 C -1.09587,0.99626 0,0.09961 0.29886,0 0,-0.09961 -1.09587,-0.99626 -1.19551,-1.59401" /></g></g><g
               id="g3088"><g
                 id="g3090"><g
                   transform="translate(-289.482,-129.615)"
                   id="g3092"><g
                     id="g3094"><g
                       transform="translate(-88.675,-484.155)"
                       id="g3096"><text
                         id="text3098"
                         transform="matrix(1,0,0,-1,88.675,484.155)"><tspan
                           id="tspan3100"
                           sodipodi:role="line"
                           y="0"
                           x="0 5.7272773 11.454555 17.181833 22.909109 28.636387 34.363667 40.090942 45.818218 51.545498 57.272774 63.000053"
                           style="font-size:10.90909958px;font-variant:normal;font-weight:normal;writing-mode:lr-tb;fill:#000000;fill-opacity:1;fill-rule:nonzero;stroke:none;font-family:LMMono10;-inkscape-font-specification:LMMono10-Regular">SegmentTrace</tspan></text>
<g
                         transform="translate(88.675,484.155)"
                         id="g3102" /></g></g><g
                     transform="translate(289.482,129.615)"
                     id="g3104" /></g></g><path
                 inkscape:connector-curvature="0"
                 id="path3106"
                 style="fill:none;stroke:#000000;stroke-width:0.3985;stroke-linecap:butt;stroke-linejoin:miter;stroke-miterlimit:10;stroke-opacity:1;stroke-dasharray:none"
                 d="m -255.12126,-93.35542 1e-5,-25.43198" /><g
                 transform="matrix(0,-1,1,0,-255.12125,-118.7874)"
                 id="g3108"><g
                   id="g3110"><path
                     inkscape:connector-curvature="0"
                     id="path3112"
                     style="fill:none;stroke:#000000;stroke-width:0.31878999;stroke-linecap:round;stroke-linejoin:round;stroke-miterlimit:10;stroke-opacity:1;stroke-dasharray:none"
                     d="M -1.19551,1.59401 C -1.09587,0.99626 0,0.09961 0.29886,0 0,-0.09961 -1.09587,-0.99626 -1.19551,-1.59401" /></g></g><g
                 id="g3114"><g
                   id="g3116"><g
                     transform="translate(-289.482,-172.134)"
                     id="g3118"><g
                       id="g3120"><g
                         transform="translate(-88.675,-441.636)"
                         id="g3122"><text
                           id="text3124"
                           transform="matrix(1,0,0,-1,88.675,441.636)"><tspan
                             id="tspan3126"
                             sodipodi:role="line"
                             y="0"
                             x="0 5.7272773 11.454555 17.181833 22.909109 28.636387 34.363667 40.090942 45.818218 51.545498 57.272774 63.000053"
                             style="font-size:10.90909958px;font-variant:normal;font-weight:normal;writing-mode:lr-tb;fill:#000000;fill-opacity:1;fill-rule:nonzero;stroke:none;font-family:LMMono10;-inkscape-font-specification:LMMono10-Regular">SegmentTrace</tspan></text>
<g
                           transform="translate(88.675,441.636)"
                           id="g3128" /></g></g><g
                       transform="translate(289.482,172.134)"
                       id="g3130" /></g></g><path
                   inkscape:connector-curvature="0"
                   id="path3132"
                   style="fill:none;stroke:#000000;stroke-width:0.3985;stroke-linecap:butt;stroke-linejoin:miter;stroke-miterlimit:10;stroke-opacity:1;stroke-dasharray:none"
                   d="m -255.12125,-135.87564 2e-5,-25.43198" /><g
                   transform="matrix(0,-1,1,0,-255.12123,-161.30762)"
                   id="g3134"><g
                     id="g3136"><path
                       inkscape:connector-curvature="0"
                       id="path3138"
                       style="fill:none;stroke:#000000;stroke-width:0.31878999;stroke-linecap:round;stroke-linejoin:round;stroke-miterlimit:10;stroke-opacity:1;stroke-dasharray:none"
                       d="M -1.19551,1.59401 C -1.09587,0.99626 0,0.09961 0.29886,0 0,-0.09961 -1.09587,-0.99626 -1.19551,-1.59401" /></g></g><g
                   id="g3140"><g
                     id="g3142"><g
                       transform="translate(-283.754,-214.654)"
                       id="g3144"><g
                         id="g3146"><g
                           transform="translate(-94.403,-399.116)"
                           id="g3148"><text
                             id="text3150"
                             transform="matrix(1,0,0,-1,94.403,399.116)"><tspan
                               id="tspan3152"
                               sodipodi:role="line"
                               y="0"
                               x="0 5.7272773 11.454555 17.181833 22.909109 28.636387 34.363667 40.090942 45.818218 51.545498"
                               style="font-size:10.90909958px;font-variant:normal;font-weight:normal;writing-mode:lr-tb;fill:#000000;fill-opacity:1;fill-rule:nonzero;stroke:none;font-family:LMMono10;-inkscape-font-specification:LMMono10-Regular">EmptyTrace</tspan></text>
<g
                             transform="translate(94.403,399.116)"
                             id="g3154" /></g></g><g
                         transform="translate(283.754,214.654)"
                         id="g3156" /></g></g><path
                     inkscape:connector-curvature="0"
                     id="path3158"
                     style="fill:none;stroke:#000000;stroke-width:0.3985;stroke-linecap:butt;stroke-linejoin:miter;stroke-miterlimit:10;stroke-opacity:1;stroke-dasharray:none"
                     d="m -255.12123,-178.39586 1e-5,-25.43199" /><g
                     transform="matrix(0,-1,1,0,-255.12122,-203.82785)"
                     id="g3160"><g
                       id="g3162"><path
                         inkscape:connector-curvature="0"
                         id="path3164"
                         style="fill:none;stroke:#000000;stroke-width:0.31878999;stroke-linecap:round;stroke-linejoin:round;stroke-miterlimit:10;stroke-opacity:1;stroke-dasharray:none"
                         d="M -1.19551,1.59401 C -1.09587,0.99626 0,0.09961 0.29886,0 0,-0.09961 -1.09587,-0.99626 -1.19551,-1.59401" /></g></g></g></g></g></g><g
             id="g3166"><g
               id="g3168"><g
                 transform="translate(-147.749,-87.095)"
                 id="g3170"><g
                   id="g3172"><g
                     transform="translate(-230.408,-526.675)"
                     id="g3174"><text
                       id="text3176"
                       transform="matrix(1,0,0,-1,230.408,526.675)"><tspan
                         id="tspan3178"
                         sodipodi:role="line"
                         y="0"
                         x="0 5.7272773 11.454555 17.181833 22.909109 28.636387 34.363667 40.090942 45.818218 51.545498 57.272774 63.000053"
                         style="font-size:10.90909958px;font-variant:normal;font-weight:normal;writing-mode:lr-tb;fill:#000000;fill-opacity:1;fill-rule:nonzero;stroke:none;font-family:LMMono10;-inkscape-font-specification:LMMono10-Regular">SegmentTrace</tspan></text>
<g
                       transform="translate(230.408,526.675)"
                       id="g3180" /></g></g><g
                   transform="translate(147.749,87.095)"
                   id="g3182" /></g></g><path
               inkscape:connector-curvature="0"
               id="path3184"
               style="fill:none;stroke:#000000;stroke-width:0.3985;stroke-linecap:butt;stroke-linejoin:miter;stroke-miterlimit:10;stroke-opacity:1;stroke-dasharray:none"
               d="m -170.40085,-50.83519 42.76575,-25.65352" /><g
               transform="matrix(0.86127,-0.51663,0.51663,0.86127,-127.6351,-76.48871)"
               id="g3186"><g
                 id="g3188"><path
                   inkscape:connector-curvature="0"
                   id="path3190"
                   style="fill:none;stroke:#000000;stroke-width:0.31878999;stroke-linecap:round;stroke-linejoin:round;stroke-miterlimit:10;stroke-opacity:1;stroke-dasharray:none"
                   d="M -1.19551,1.59401 C -1.09587,0.99626 0,0.09961 0.29886,0 0,-0.09961 -1.09587,-0.99626 -1.19551,-1.59401" /></g></g><g
               id="g3192"><g
                 id="g3194"><g
                   transform="translate(-142.022,-129.615)"
                   id="g3196"><g
                     id="g3198"><g
                       transform="translate(-236.135,-484.155)"
                       id="g3200"><text
                         id="text3202"
                         transform="matrix(1,0,0,-1,236.135,484.155)"><tspan
                           id="tspan3204"
                           sodipodi:role="line"
                           y="0"
                           x="0 5.7272773 11.454555 17.181833 22.909109 28.636387 34.363667 40.090942 45.818218 51.545498"
                           style="font-size:10.90909958px;font-variant:normal;font-weight:normal;writing-mode:lr-tb;fill:#000000;fill-opacity:1;fill-rule:nonzero;stroke:none;font-family:LMMono10;-inkscape-font-specification:LMMono10-Regular">EmptyTrace</tspan></text>
<g
                         transform="translate(236.135,484.155)"
                         id="g3206" /></g></g><g
                     transform="translate(142.022,129.615)"
                     id="g3208" /></g></g><path
                 inkscape:connector-curvature="0"
                 id="path3210"
                 style="fill:none;stroke:#000000;stroke-width:0.3985;stroke-linecap:butt;stroke-linejoin:miter;stroke-miterlimit:10;stroke-opacity:1;stroke-dasharray:none"
                 d="m -113.38716,-93.35542 10e-6,-25.43198" /><g
                 transform="matrix(0,-1,1,0,-113.38715,-118.7874)"
                 id="g3212"><g
                   id="g3214"><path
                     inkscape:connector-curvature="0"
                     id="path3216"
                     style="fill:none;stroke:#000000;stroke-width:0.31878999;stroke-linecap:round;stroke-linejoin:round;stroke-miterlimit:10;stroke-opacity:1;stroke-dasharray:none"
                     d="M -1.19551,1.59401 C -1.09587,0.99626 0,0.09961 0.29886,0 0,-0.09961 -1.09587,-0.99626 -1.19551,-1.59401" /></g></g></g></g></g><g
           id="g3218"><g
             transform="translate(-179.068,-9.873)"
             id="g3220"><g
               id="g3222"><g
                 transform="translate(-199.089,-603.897)"
                 id="g3224"><text
                   id="text3226"
                   transform="matrix(1,0,0,-1,199.089,603.897)"><tspan
                     id="tspan3228"
                     sodipodi:role="line"
                     y="0"
                     x="0 4.7073598 9.4147196 14.12208 18.829439 23.5368 28.24416 36.08976 40.797119 45.504478 50.211842 54.919201 59.62656 64.333923 69.041283 73.748642"
                     style="font-size:8.96640015px;font-variant:normal;font-weight:normal;writing-mode:lr-tb;fill:#000000;fill-opacity:1;fill-rule:nonzero;stroke:none;font-family:LMMono9;-inkscape-font-specification:LMMono9-Regular">Segment(350,500)</tspan><tspan
                     id="tspan3230"
                     sodipodi:role="line"
                     y="10.959"
                     x="-0.47099999 4.2363601 8.9437199 13.65108 18.35844 23.0658 27.773161 32.480518 37.187881 45.033482 49.740841 54.4482 59.15556 63.862919 68.570282 73.277641 81.123238"
                     style="font-size:8.96640015px;font-variant:normal;font-weight:normal;writing-mode:lr-tb;fill:#000000;fill-opacity:1;fill-rule:nonzero;stroke:none;font-family:LMMono9;-inkscape-font-specification:LMMono9-Regular">(350,350)(0,0,0)2</tspan></text>
<g
                   transform="translate(199.089,603.897)"
                   id="g3232" /></g></g><g
               transform="translate(179.068,9.873)"
               id="g3234" /></g></g><g
           id="g3236"><g
             transform="translate(-249.934,-94.912)"
             id="g3238"><g
               id="g3240"><g
                 transform="translate(-128.223,-518.858)"
                 id="g3242"><text
                   id="text3244"
                   transform="matrix(1,0,0,-1,128.223,518.858)"><tspan
                     id="tspan3246"
                     sodipodi:role="line"
                     y="0"
                     x="0 4.7073598 9.4147196 14.12208 18.829439 23.5368 28.24416 36.08976 40.797119 45.504478 50.211842 54.919201 59.62656 64.333923 69.041283 73.748642"
                     style="font-size:8.96640015px;font-variant:normal;font-weight:normal;writing-mode:lr-tb;fill:#000000;fill-opacity:1;fill-rule:nonzero;stroke:none;font-family:LMMono9;-inkscape-font-specification:LMMono9-Regular">Segment(200,200)</tspan><tspan
                     id="tspan3248"
                     sodipodi:role="line"
                     y="10.959"
                     x="-0.47099999 4.2363601 8.9437199 13.65108 18.35844 23.0658 27.773161 32.480518 37.187881 45.033482 49.740841 54.4482 59.15556 63.862919 68.570282 73.277641 81.123238"
                     style="font-size:8.96640015px;font-variant:normal;font-weight:normal;writing-mode:lr-tb;fill:#000000;fill-opacity:1;fill-rule:nonzero;stroke:none;font-family:LMMono9;-inkscape-font-specification:LMMono9-Regular">(200,100)(0,0,0)2</tspan></text>
<g
                   transform="translate(128.223,518.858)"
                   id="g3250" /></g></g><g
               transform="translate(249.934,94.912)"
               id="g3252" /></g></g><g
           id="g3254"><g
             transform="translate(-249.934,-137.432)"
             id="g3256"><g
               id="g3258"><g
                 transform="translate(-128.223,-476.338)"
                 id="g3260"><text
                   id="text3262"
                   transform="matrix(1,0,0,-1,128.223,476.338)"><tspan
                     id="tspan3264"
                     sodipodi:role="line"
                     y="0"
                     x="0 4.7073598 9.4147196 14.12208 18.829439 23.5368 28.24416 36.08976 40.797119 45.504478 50.211842 54.919201 59.62656 64.333923 69.041283 73.748642"
                     style="font-size:8.96640015px;font-variant:normal;font-weight:normal;writing-mode:lr-tb;fill:#000000;fill-opacity:1;fill-rule:nonzero;stroke:none;font-family:LMMono9;-inkscape-font-specification:LMMono9-Regular">Segment(350,100)</tspan><tspan
                     id="tspan3266"
                     sodipodi:role="line"
                     y="10.959"
                     x="-0.47099999 4.2363601 8.9437199 13.65108 18.35844 23.0658 27.773161 32.480518 37.187881 45.033482 49.740841 54.4482 59.15556 63.862919 68.570282 73.277641 81.123238"
                     style="font-size:8.96640015px;font-variant:normal;font-weight:normal;writing-mode:lr-tb;fill:#000000;fill-opacity:1;fill-rule:nonzero;stroke:none;font-family:LMMono9;-inkscape-font-specification:LMMono9-Regular">(500,100)(0,0,0)4</tspan></text>
<g
                   transform="translate(128.223,476.338)"
                   id="g3268" /></g></g><g
               transform="translate(249.934,137.432)"
               id="g3270" /></g></g><g
           id="g3272"><g
             transform="translate(-249.934,-179.952)"
             id="g3274"><g
               id="g3276"><g
                 transform="translate(-128.223,-433.818)"
                 id="g3278"><text
                   id="text3280"
                   transform="matrix(1,0,0,-1,128.223,433.818)"><tspan
                     id="tspan3282"
                     sodipodi:role="line"
                     y="0"
                     x="0 4.7073598 9.4147196 14.12208 18.829439 23.5368 28.24416 36.08976 40.797119 45.504478 50.211842 54.919201 59.62656 64.333923 69.041283 73.748642"
                     style="font-size:8.96640015px;font-variant:normal;font-weight:normal;writing-mode:lr-tb;fill:#000000;fill-opacity:1;fill-rule:nonzero;stroke:none;font-family:LMMono9;-inkscape-font-specification:LMMono9-Regular">Segment(350,350)</tspan><tspan
                     id="tspan3284"
                     sodipodi:role="line"
                     y="10.959"
                     x="-0.47099999 4.2363601 8.9437199 13.65108 18.35844 23.0658 27.773161 32.480518 37.187881 45.033482 49.740841 54.4482 59.15556 63.862919 68.570282 73.277641 81.123238"
                     style="font-size:8.96640015px;font-variant:normal;font-weight:normal;writing-mode:lr-tb;fill:#000000;fill-opacity:1;fill-rule:nonzero;stroke:none;font-family:LMMono9;-inkscape-font-specification:LMMono9-Regular">(600,100)(0,0,0)4</tspan></text>
<g
                   transform="translate(128.223,433.818)"
                   id="g3286" /></g></g><g
               transform="translate(249.934,179.952)"
               id="g3288" /></g></g><g
           id="g3290"><g
             transform="translate(-108.202,-94.912)"
             id="g3292"><g
               id="g3294"><g
                 transform="translate(-269.955,-518.858)"
                 id="g3296"><text
                   id="text3298"
                   transform="matrix(1,0,0,-1,269.955,518.858)"><tspan
                     id="tspan3300"
                     sodipodi:role="line"
                     y="0"
                     x="0 4.7073598 9.4147196 14.12208 18.829439 23.5368 28.24416 36.08976 40.797119 45.504478 50.211842 54.919201 59.62656 64.333923 69.041283 73.748642"
                     style="font-size:8.96640015px;font-variant:normal;font-weight:normal;writing-mode:lr-tb;fill:#000000;fill-opacity:1;fill-rule:nonzero;stroke:none;font-family:LMMono9;-inkscape-font-specification:LMMono9-Regular">Segment(500,100)</tspan><tspan
                     id="tspan3302"
                     sodipodi:role="line"
                     y="10.959"
                     x="-0.47099999 4.2363601 8.9437199 13.65108 18.35844 23.0658 27.773161 32.480518 37.187881"
                     style="font-size:8.96640015px;font-variant:normal;font-weight:normal;writing-mode:lr-tb;fill:#000000;fill-opacity:1;fill-rule:nonzero;stroke:none;font-family:LMMono9;-inkscape-font-specification:LMMono9-Regular">(600,200)</tspan><tspan
                     id="tspan3304"
                     sodipodi:role="line"
                     y="21.917999"
                     x="-0.47099999 4.2363601 8.9437199 13.65108 18.35844 23.0658 27.773161 32.480518 37.187881 41.895241 46.6026 51.309959 56.017319 63.862919"
                     style="font-size:8.96640015px;font-variant:normal;font-weight:normal;writing-mode:lr-tb;fill:#000000;fill-opacity:1;fill-rule:nonzero;stroke:none;font-family:LMMono9;-inkscape-font-specification:LMMono9-Regular">(127,127,127)4</tspan></text>
<g
                   transform="translate(269.955,518.858)"
                   id="g3306" /></g></g><g
               transform="translate(108.202,94.912)"
               id="g3308" /></g></g><path
           inkscape:connector-curvature="0"
           id="path3310"
           style="fill:none;stroke:#000000;stroke-width:0.3985;stroke-linecap:butt;stroke-linejoin:miter;stroke-miterlimit:10;stroke-opacity:1;stroke-dasharray:none"
           d="m 0,0 0,-158.9643 158.9643,0 L 158.9643,0 0,0 z" /><g
           id="g3312"><path
             inkscape:connector-curvature="0"
             id="path3314"
             style="fill:none;stroke:#000000;stroke-width:0.56693;stroke-linecap:butt;stroke-linejoin:miter;stroke-miterlimit:10;stroke-opacity:1;stroke-dasharray:none"
             d="m 79.36876,-113.38394 0,34.01518" /></g><g
           id="g3316"><path
             inkscape:connector-curvature="0"
             id="path3318"
             style="fill:none;stroke:#000000;stroke-width:0.56693;stroke-linecap:butt;stroke-linejoin:miter;stroke-miterlimit:10;stroke-opacity:1;stroke-dasharray:none"
             d="m 45.35358,-45.35358 0,22.67679" /></g><g
           id="g3320"><path
             inkscape:connector-curvature="0"
             id="path3322"
             style="fill:none;stroke:#000000;stroke-width:1.13384998;stroke-linecap:butt;stroke-linejoin:miter;stroke-miterlimit:10;stroke-opacity:1;stroke-dasharray:none"
             d="m 79.36876,-79.36876 56.69199,56.69197" /></g><g
           id="g3324"><path
             inkscape:connector-curvature="0"
             id="path3326"
             style="fill:none;stroke:#000000;stroke-width:1.13384998;stroke-linecap:butt;stroke-linejoin:miter;stroke-miterlimit:10;stroke-opacity:1;stroke-dasharray:none"
             d="m 79.36876,-22.67679 34.01518,0" /></g><g
           id="g3328"><path
             inkscape:connector-curvature="0"
             id="path3330"
             style="fill:none;stroke:#808080;stroke-width:1.13384998;stroke-linecap:butt;stroke-linejoin:miter;stroke-miterlimit:10;stroke-opacity:1;stroke-dasharray:none"
             d="m 136.06075,-45.35358 -22.67681,22.67679" /></g><g
           id="g3332"><path
             inkscape:connector-curvature="0"
             id="path3334"
             style="fill:none;stroke:#666666;stroke-width:0.3985;stroke-linecap:butt;stroke-linejoin:miter;stroke-miterlimit:10;stroke-opacity:1;stroke-dasharray:2.98883, 2.98883;stroke-dashoffset:0"
             d="M -129.46367,-25.91359 C -54.0157,-67.1244 -5.6239,-83.45474 73.30893,-95.45518" /><g
             transform="matrix(0.98894,-0.15033,0.15033,0.98894,73.30893,-95.45518)"
             id="g3336"><g
               id="g3338"><path
                 inkscape:connector-curvature="0"
                 id="path3340"
                 style="fill:none;stroke:#666666;stroke-width:0.31878999;stroke-linecap:round;stroke-linejoin:round;stroke-miterlimit:10;stroke-opacity:1;stroke-dasharray:none"
                 d="M -1.19551,1.59401 C -1.09587,0.99626 0,0.09961 0.29886,0 0,-0.09961 -1.09587,-0.99626 -1.19551,-1.59401" /></g></g></g><g
           id="g3342"><path
             inkscape:connector-curvature="0"
             id="path3344"
             style="fill:none;stroke:#666666;stroke-width:0.3985;stroke-linecap:butt;stroke-linejoin:miter;stroke-miterlimit:10;stroke-opacity:1;stroke-dasharray:2.98883, 2.98883;stroke-dashoffset:0"
             d="m -200.33069,-84.85138 c 83.25534,51.39723 148.8696,64.9798 239.61583,51.72267" /><g
             transform="matrix(0.99034,-0.14467,0.14467,0.99034,39.28514,-33.12871)"
             id="g3346"><g
               id="g3348"><path
                 inkscape:connector-curvature="0"
                 id="path3350"
                 style="fill:none;stroke:#666666;stroke-width:0.31878999;stroke-linecap:round;stroke-linejoin:round;stroke-miterlimit:10;stroke-opacity:1;stroke-dasharray:none"
                 d="M -1.19551,1.59401 C -1.09587,0.99626 0,0.09961 0.29886,0 0,-0.09961 -1.09587,-0.99626 -1.19551,-1.59401" /></g></g></g><g
           id="g3352"><path
             inkscape:connector-curvature="0"
             id="path3354"
             style="fill:none;stroke:#666666;stroke-width:0.3985;stroke-linecap:butt;stroke-linejoin:miter;stroke-miterlimit:10;stroke-opacity:1;stroke-dasharray:2.98883, 2.98883;stroke-dashoffset:0"
             d="m -200.33067,-153.47426 c 283.4682,0 283.4682,0 306.613,96.47983" /><g
             transform="matrix(0.23376,0.97455,-0.97455,0.23376,106.28233,-56.99443)"
             id="g3356"><g
               id="g3358"><path
                 inkscape:connector-curvature="0"
                 id="path3360"
                 style="fill:none;stroke:#666666;stroke-width:0.31878999;stroke-linecap:round;stroke-linejoin:round;stroke-miterlimit:10;stroke-opacity:1;stroke-dasharray:none"
                 d="M -1.19551,1.59401 C -1.09587,0.99626 0,0.09961 0.29886,0 0,-0.09961 -1.09587,-0.99626 -1.19551,-1.59401" /></g></g></g><g
           id="g3362"><path
             inkscape:connector-curvature="0"
             id="path3364"
             style="fill:none;stroke:#666666;stroke-width:0.3985;stroke-linecap:butt;stroke-linejoin:miter;stroke-miterlimit:10;stroke-opacity:1;stroke-dasharray:2.98883, 2.98883;stroke-dashoffset:0"
             d="M -200.33066,-169.89183 C -71.52718,-155.46938 6.9784,-116.51897 92.14398,-27.11926" /><g
             transform="matrix(0.6907,0.72499,-0.72499,0.6907,92.14398,-27.11926)"
             id="g3366"><g
               id="g3368"><path
                 inkscape:connector-curvature="0"
                 id="path3370"
                 style="fill:none;stroke:#666666;stroke-width:0.31878999;stroke-linecap:round;stroke-linejoin:round;stroke-miterlimit:10;stroke-opacity:1;stroke-dasharray:none"
                 d="M -1.19551,1.59401 C -1.09587,0.99626 0,0.09961 0.29886,0 0,-0.09961 -1.09587,-0.99626 -1.19551,-1.59401" /></g></g></g><g
           id="g3372"><path
             inkscape:connector-curvature="0"
             id="path3374"
             style="fill:none;stroke:#666666;stroke-width:0.3985;stroke-linecap:butt;stroke-linejoin:miter;stroke-miterlimit:10;stroke-opacity:1;stroke-dasharray:2.98883, 2.98883;stroke-dashoffset:0"
             d="m -58.59659,-84.85138 c 69.52042,25.9913 110.34128,37.31227 177.28827,49.7188" /><g
             transform="matrix(0.98418,0.18236,-0.18236,0.98418,118.69168,-35.13258)"
             id="g3376"><g
               id="g3378"><path
                 inkscape:connector-curvature="0"
                 id="path3380"
                 style="fill:none;stroke:#666666;stroke-width:0.31878999;stroke-linecap:round;stroke-linejoin:round;stroke-miterlimit:10;stroke-opacity:1;stroke-dasharray:none"
                 d="M -1.19551,1.59401 C -1.09587,0.99626 0,0.09961 0.29886,0 0,-0.09961 -1.09587,-0.99626 -1.19551,-1.59401" /></g></g></g></g></g><text
       transform="scale(1,-1)"
       id="text3384"
       x="141.73199"
       y="-373.13"><tspan
         style="font-size:8.96640015px;font-variant:normal;font-weight:normal;writing-mode:lr-tb;fill:#000000;fill-opacity:1;fill-rule:nonzero;stroke:none;font-family:LMMono9;-inkscape-font-specification:LMMono9-Regular"
         x="141.73199 146.43936 151.14671 155.85408 160.56143 165.2688 169.97617 174.68352 179.39088 184.09824 188.8056 193.51295 202.92767 207.63504 212.34239 217.04976 221.75713 226.46448 231.17184 235.8792 245.29391 250.00128 254.70863 259.41599 264.12335 268.83072 273.53809 278.24545 282.95279 292.36752 297.07489 301.78226 306.48959 311.19696 315.90433 320.61169 325.31903 330.0264 339.44113 344.14847 348.85583 353.5632 358.27057 362.97794 367.68527 377.10001 381.80737"
         y="-373.13"
         sodipodi:role="line"
         id="tspan3386">SegmentTrace(Segment(350,500)(350,350)(0,0,0)2)</tspan><tspan
         style="font-size:8.96640015px;font-variant:normal;font-weight:normal;writing-mode:lr-tb;fill:#000000;fill-opacity:1;fill-rule:nonzero;stroke:none;font-family:LMMono9;-inkscape-font-specification:LMMono9-Regular"
         x="151.147 155.85435 160.56172 165.26907 169.97644 174.68381 179.39116 184.09853 188.80588 193.51324 198.2206"
         y="-362.172"
         sodipodi:role="line"
         id="tspan3388">(SplitTrace</tspan><tspan
         style="font-size:8.96640015px;font-variant:normal;font-weight:normal;writing-mode:lr-tb;fill:#000000;fill-opacity:1;fill-rule:nonzero;stroke:none;font-family:LMMono9;-inkscape-font-specification:LMMono9-Regular"
         x="160.562 165.26936 169.97672 174.68408 179.39143 184.0988 188.80617 193.51352 198.22089 202.92824 207.6356 212.34296 217.05032 226.46504 231.17239 235.87976 240.58711 245.29448 250.00183 254.7092 259.41656 268.83127 273.53864 278.246 282.95337 287.66074 292.36807 297.07544 301.78281 306.49017 315.90488 320.61224 325.31961 330.02695 334.73431 339.44168 344.14905 348.85641 353.56375 362.97849 367.68585 372.39319 377.10056 381.80792 386.51529 391.22266 400.63736 405.34473"
         y="-351.21301"
         sodipodi:role="line"
         id="tspan3390">(SegmentTrace(Segment(200,200)(200,100)(0,0,0)2)</tspan><tspan
         style="font-size:8.96640015px;font-variant:normal;font-weight:normal;writing-mode:lr-tb;fill:#000000;fill-opacity:1;fill-rule:nonzero;stroke:none;font-family:LMMono9;-inkscape-font-specification:LMMono9-Regular"
         x="169.976 174.68336 179.39072 184.09808 188.80544 193.5128 198.22015 202.92752 207.63487 212.34224 217.04959 221.75696 226.46432 235.87904 240.5864 245.29376 250.00111 254.70848 259.41583 264.1232 268.83057 278.24527 282.95264 287.66 292.36737 297.07471 301.78207 306.48944 311.19681 315.90417 325.31888 330.02625 334.73361 339.44095 344.14832 348.85568 353.56305 358.27042 362.97775 372.39249 377.09985 381.80719 386.51456 391.22192 395.92929 400.63663 410.05136 414.75873"
         y="-340.254"
         sodipodi:role="line"
         id="tspan3392">(SegmentTrace(Segment(350,100)(500,100)(0,0,0)4)</tspan><tspan
         style="font-size:8.96640015px;font-variant:normal;font-weight:normal;writing-mode:lr-tb;fill:#000000;fill-opacity:1;fill-rule:nonzero;stroke:none;font-family:LMMono9;-inkscape-font-specification:LMMono9-Regular"
         x="179.39101 184.09836 188.80573 193.51308 198.22044 202.9278 207.63516 212.34251 217.04988 221.75723 226.4646 231.17195 235.87932 245.29404 250.0014 254.70876 259.41611 264.12347 268.83084 273.53821 278.24557 287.66028 292.36765 297.07501 301.78235 306.48972 311.19708 315.90445 320.61182 325.31915 334.73389 339.44125 344.14859 348.85596 353.56332 358.27069 362.97803 367.68539 372.39276 381.8075 386.51483 391.2222 395.92957 400.6369 405.34427 410.05164 414.759 419.46637 424.17371 428.88107 433.58844 438.29581 447.71051 452.41788"
         y="-329.29501"
         sodipodi:role="line"
         id="tspan3394">(SegmentTrace(Segment(500,100)(600,200)(127,127,127)4)</tspan><tspan
         style="font-size:8.96640015px;font-variant:normal;font-weight:normal;writing-mode:lr-tb;fill:#000000;fill-opacity:1;fill-rule:nonzero;stroke:none;font-family:LMMono9;-inkscape-font-specification:LMMono9-Regular"
         x="188.806 193.51337 198.22072 202.92809 207.63544 212.3428 217.05016 221.75752 226.46487 231.17224 235.87959 240.58696 245.29431"
         y="-318.336"
         sodipodi:role="line"
         id="tspan3396">EmptyTrace)))</tspan><tspan
         style="font-size:8.96640015px;font-variant:normal;font-weight:normal;writing-mode:lr-tb;fill:#000000;fill-opacity:1;fill-rule:nonzero;stroke:none;font-family:LMMono9;-inkscape-font-specification:LMMono9-Regular"
         x="160.562 165.26936 169.97672 174.68408 179.39143 184.0988 188.80617 193.51352 198.22089 202.92824 207.6356 212.34296 217.05032 226.46504 231.17239 235.87976 240.58711 245.29448 250.00183 254.7092 259.41656 268.83127 273.53864 278.246 282.95337 287.66074 292.36807 297.07544 301.78281 306.49017 315.90488 320.61224 325.31961 330.02695 334.73431 339.44168 344.14905 348.85641 353.56375 362.97849 367.68585 372.39319 377.10056 381.80792 386.51529 391.22266 400.63736 405.34473"
         y="-307.37701"
         sodipodi:role="line"
         id="tspan3398">(SegmentTrace(Segment(350,350)(600,100)(0,0,0)4)</tspan><tspan
         style="font-size:8.96640015px;font-variant:normal;font-weight:normal;writing-mode:lr-tb;fill:#000000;fill-opacity:1;fill-rule:nonzero;stroke:none;font-family:LMMono9;-inkscape-font-specification:LMMono9-Regular"
         x="169.976 174.68336 179.39072 184.09808 188.80544 193.5128 198.22015 202.92752 207.63487 212.34224 217.04959 221.75696"
         y="-296.418"
         sodipodi:role="line"
         id="tspan3400">EmptyTrace))</tspan></text>
</g></svg>